<svg width="113" height="121" viewBox="0 0 113 121" fill="none" xmlns="http://www.w3.org/2000/svg">
  <path fill-rule="evenodd" clip-rule="evenodd"
    d="M0 116.994C25.2095 98.1455 38.4387 97.8723 38.4387 97.8723C23.4925 105.131 16.3511 122.496 17.7169 120.897C19.2389 119.14 30.907 106.575 48.3118 99.8625C65.7555 93.1504 63.6092 83.5115 63.6092 83.5115C62.0092 92.2529 16.8974 86.4773 0 116.994Z"
    fill="url(#paint0_linear_451_1005)" />
  <path fill-rule="evenodd" clip-rule="evenodd"
    d="M101.58 40.0387C90.6919 31.3753 81.7944 39.9216 81.7944 39.9216C86.5163 46.4386 89.9505 57.2483 89.9505 57.2483C97.9894 43.0826 112.428 42.3411 112.428 42.3411C108.643 39.8045 101.58 40.0387 101.58 40.0387Z"
    fill="url(#paint1_linear_451_1005)" />
  <path fill-rule="evenodd" clip-rule="evenodd"
    d="M45.1119 21.6584L45.4631 18.8486C45.4631 18.8486 44.4875 17.9121 43.668 15.7267C43.3948 14.9072 43.1217 14.1267 42.8875 13.3072C42.6534 12.4877 42.4583 11.5511 42.2631 10.4975C41.99 8.85848 41.9119 7.14142 42.107 5.34631C23.1804 25.6388 30.0486 41.8728 47.0241 60.1751C52.3704 65.8336 68.5263 79.3749 67.7849 87.1797C73.6385 71.6872 64.4678 61.2287 55.8435 49.3654C50.7704 42.3411 44.9948 33.5997 44.9558 24.7022C44.9558 23.1413 45.0338 22.634 45.1119 21.6584Z"
    fill="url(#paint2_linear_451_1005)" />
  <path fill-rule="evenodd" clip-rule="evenodd"
    d="M59.902 0C59.902 0 46.5557 13.6584 48.585 26.3412C50.6142 39.024 62.3995 51.5898 69.3458 63.0238C76.253 74.4579 72.3506 85.2675 72.3506 85.2675C103.453 66.3409 77.736 42.3801 67.7068 24.6632C57.6386 6.9853 59.902 0 59.902 0Z"
    fill="url(#paint3_linear_451_1005)" />
  <defs>
    <linearGradient id="paint0_linear_451_1005" x1="92.8198" y1="17.6738" x2="46.3922" y2="81.9582"
      gradientUnits="userSpaceOnUse">
      <stop stop-color="#02E4D1" />
      <stop offset="1" stop-color="#1A94E1" />
    </linearGradient>
    <linearGradient id="paint1_linear_451_1005" x1="106.785" y1="27.76" x2="60.3578" y2="92.0445"
      gradientUnits="userSpaceOnUse">
      <stop stop-color="#02E4D1" />
      <stop offset="1" stop-color="#1A94E1" />
    </linearGradient>
    <linearGradient id="paint2_linear_451_1005" x1="81.3199" y1="9.36825" x2="34.8923" y2="73.6527"
      gradientUnits="userSpaceOnUse">
      <stop stop-color="#02E4D1" />
      <stop offset="1" stop-color="#1A94E1" />
    </linearGradient>
    <linearGradient id="paint3_linear_451_1005" x1="88.278" y1="14.3935" x2="41.8503" y2="78.678"
      gradientUnits="userSpaceOnUse">
      <stop stop-color="#02E4D1" />
      <stop offset="1" stop-color="#1A94E1" />
    </linearGradient>
  </defs>
</svg>