<?xml version="1.0" standalone="no"?>
<!DOCTYPE svg PUBLIC "-//W3C//DTD SVG 20010904//EN"
 "http://www.w3.org/TR/2001/REC-SVG-20010904/DTD/svg10.dtd">
<svg version="1.0" xmlns="http://www.w3.org/2000/svg"
 width="968.000000pt" height="968.000000pt" viewBox="0 0 968.000000 968.000000"
 preserveAspectRatio="xMidYMid meet">
<metadata>
Created by potrace 1.14, written by Peter Selinger 2001-2017
</metadata>
<g transform="translate(0.000000,968.000000) scale(0.100000,-0.100000)"
fill="#000000" stroke="none">
<path d="M5100 9673 c0 -5 -17 -26 -38 -48 -37 -41 -124 -142 -152 -179 -8
-10 -22 -27 -31 -36 -9 -10 -18 -22 -20 -28 -2 -6 -14 -24 -27 -39 -28 -34
-103 -134 -119 -159 -7 -11 -29 -44 -50 -74 -20 -30 -42 -64 -48 -75 -29 -56
-100 -171 -108 -176 -5 -3 -8 -9 -8 -12 0 -4 -30 -69 -67 -145 -37 -76 -72
-152 -78 -168 -6 -16 -21 -54 -33 -85 -13 -31 -23 -63 -25 -70 -1 -8 -8 -25
-16 -39 -7 -14 -13 -27 -12 -30 4 -12 -11 -71 -19 -76 -5 -3 -7 -9 -4 -13 2
-5 0 -23 -5 -42 -6 -19 -12 -45 -15 -59 -3 -14 -7 -36 -10 -50 -15 -75 -18
-130 -18 -280 0 -91 3 -178 6 -195 3 -16 8 -48 12 -70 4 -22 10 -56 15 -75 5
-19 16 -64 25 -100 17 -68 78 -250 103 -310 9 -19 17 -40 18 -47 5 -30 217
-453 244 -488 4 -5 22 -37 40 -70 18 -33 36 -62 39 -65 6 -5 19 -27 46 -75 36
-67 298 -456 449 -669 69 -97 126 -179 126 -182 0 -3 7 -12 15 -21 9 -8 34
-43 57 -77 23 -33 45 -62 50 -64 4 -2 8 -8 8 -14 0 -6 10 -23 23 -38 35 -45
58 -79 55 -83 -2 -2 5 -11 14 -20 9 -10 43 -57 75 -105 32 -48 61 -89 64 -92
3 -3 8 -9 10 -15 2 -5 38 -62 80 -125 99 -152 239 -403 244 -440 1 -3 8 -22
17 -42 20 -44 86 -243 92 -278 3 -14 10 -43 15 -65 14 -55 21 -93 27 -140 3
-22 7 -51 10 -65 27 -134 21 -502 -11 -661 -3 -13 -8 -39 -11 -58 -3 -18 -7
-41 -10 -50 -12 -50 -22 -89 -29 -110 l-7 -24 30 22 c17 11 32 21 35 21 6 0
191 125 232 157 17 13 35 27 40 31 165 124 307 255 420 387 33 39 63 72 68 73
4 2 7 10 7 18 0 8 4 14 9 14 5 0 20 17 32 37 13 21 25 40 29 43 11 11 60 90
60 99 0 5 3 11 8 13 11 5 68 119 107 213 33 80 80 241 91 314 2 20 7 52 11 71
11 72 6 429 -7 460 -1 3 -2 8 -1 12 0 4 -4 31 -9 60 -6 29 -13 65 -15 80 -3
15 -9 38 -15 52 -5 15 -8 26 -5 26 2 0 -2 18 -10 40 -8 22 -14 42 -15 45 0 3
0 6 -1 8 0 1 -2 9 -4 17 -4 20 -50 157 -65 195 -7 17 -16 39 -20 50 -10 26
-31 74 -66 155 -31 72 -181 369 -194 385 -14 17 -71 119 -77 138 -3 9 -9 17
-14 17 -5 0 -9 4 -9 10 0 5 -16 34 -35 64 -19 30 -35 59 -35 65 0 5 -3 11 -8
13 -4 2 -23 28 -42 58 -18 30 -63 100 -99 155 -36 55 -70 107 -76 116 -5 9
-23 36 -40 60 -16 24 -34 51 -40 60 -46 74 -260 385 -267 387 -4 2 -8 10 -8
18 0 8 -4 14 -10 14 -5 0 -10 4 -10 9 0 12 -60 103 -74 113 -7 5 -7 8 -1 8 6
0 6 3 -1 8 -6 4 -35 45 -65 92 -81 129 -98 154 -109 167 -5 7 -10 15 -10 18 0
3 -19 38 -43 78 -63 104 -118 203 -191 342 -17 33 -34 62 -38 63 -5 2 -8 8 -8
14 0 6 -24 61 -54 122 -75 154 -153 328 -161 359 -2 4 -4 9 -5 12 -1 3 -3 8
-4 13 -1 4 -7 17 -14 30 -7 12 -10 22 -6 22 3 0 2 6 -4 13 -5 6 -19 41 -31 77
-13 36 -25 72 -28 80 -3 8 -7 20 -9 25 -1 6 -9 29 -18 53 -8 23 -13 42 -9 42
3 0 1 6 -5 13 -5 6 -13 26 -16 42 -3 17 -12 55 -20 85 -19 66 -47 193 -51 235
-19 162 -23 287 -12 368 3 26 4 47 1 47 -2 0 -4 -3 -4 -7z"/>
<path d="M3640 9200 c-22 -22 -40 -42 -40 -45 0 -2 -12 -17 -27 -33 -16 -15
-44 -47 -63 -71 -19 -24 -40 -48 -46 -55 -5 -6 -41 -51 -79 -101 -37 -49 -72
-91 -76 -93 -5 -2 -9 -8 -9 -12 0 -5 -18 -35 -40 -67 -22 -32 -45 -65 -50 -73
-5 -8 -20 -31 -33 -50 -33 -51 -117 -201 -117 -210 0 -5 -3 -10 -7 -12 -5 -1
-21 -32 -38 -68 -16 -36 -34 -68 -40 -72 -5 -4 -7 -8 -3 -8 6 0 -10 -44 -53
-145 -8 -20 -59 -172 -63 -190 -2 -5 -7 -28 -11 -50 -12 -55 -12 -55 -15 -57
-3 -4 -9 -39 -26 -138 -18 -106 -22 -180 -19 -350 2 -107 6 -206 9 -220 2 -14
7 -41 11 -60 4 -19 8 -44 9 -55 2 -11 7 -36 11 -55 5 -19 9 -44 11 -55 1 -11
3 -20 4 -20 1 0 3 -7 5 -15 2 -8 15 -53 30 -100 14 -47 27 -91 27 -97 1 -7 4
-13 8 -13 3 0 7 -10 7 -22 1 -13 7 -32 12 -43 6 -11 22 -49 37 -85 42 -103
125 -274 138 -282 6 -4 8 -8 4 -8 -9 0 95 -183 161 -282 28 -43 51 -82 51 -87
0 -5 3 -11 8 -13 9 -4 62 -74 62 -83 0 -6 13 -23 43 -56 9 -10 17 -23 17 -29
0 -5 4 -10 8 -10 4 0 16 -15 27 -32 10 -18 24 -38 29 -44 26 -27 56 -65 56
-69 0 -5 174 -220 190 -235 3 -3 30 -34 60 -70 30 -36 59 -70 65 -76 5 -6 39
-44 75 -85 62 -70 170 -180 745 -749 216 -214 321 -323 424 -438 13 -15 40
-45 60 -67 20 -22 53 -61 74 -87 21 -26 43 -53 50 -60 7 -7 39 -49 73 -93 237
-314 356 -558 356 -733 0 -45 0 -46 13 -22 13 22 44 117 49 145 1 6 4 15 8 20
6 10 20 68 23 95 1 8 4 24 8 35 9 28 19 85 34 195 9 69 10 376 0 450 -25 204
-84 424 -158 588 -15 34 -26 62 -24 62 3 0 -103 210 -140 275 -52 93 -185 310
-208 340 -4 6 -53 75 -108 155 -56 80 -121 171 -145 203 -24 31 -44 59 -44 62
0 4 -17 27 -45 59 -5 6 -26 34 -44 61 -19 28 -38 52 -41 55 -4 3 -23 29 -43
58 -20 29 -49 70 -65 90 -16 20 -51 69 -77 107 -27 39 -51 72 -54 75 -4 3 -33
46 -66 95 -33 50 -63 95 -67 100 -20 25 -88 133 -88 139 0 3 -10 17 -22 32
-13 14 -23 29 -23 32 -1 4 -12 25 -26 47 -14 22 -37 60 -51 85 -14 25 -39 69
-56 98 -17 28 -28 52 -24 52 4 0 2 4 -3 8 -10 6 -115 216 -135 267 -12 32 -26
67 -49 118 -12 26 -23 55 -25 65 -1 9 -6 24 -9 32 -17 42 -47 146 -47 162 0
10 -4 18 -9 18 -5 0 -9 10 -9 23 0 12 -5 45 -12 72 -6 28 -14 64 -16 80 -3 17
-7 44 -9 60 -17 114 -24 264 -13 271 4 3 5 13 0 22 -4 9 -7 28 -5 42 5 68 13
151 19 200 4 30 8 69 10 85 1 17 5 42 8 56 5 20 -2 36 -25 65 -37 47 -121 209
-112 218 4 3 0 6 -7 6 -7 0 -11 3 -7 6 3 3 -4 31 -15 62 -10 32 -21 64 -24 72
-14 51 -45 180 -49 205 -3 17 -8 37 -10 45 -9 33 -18 128 -19 192 -1 38 -5 68
-9 68 -4 0 -3 9 3 20 8 14 8 20 0 20 -6 0 -8 5 -4 11 7 12 14 109 8 109 -2 0
-22 -18 -44 -40z"/>
<path d="M7526 6783 c-1 -2 -16 -5 -32 -7 -16 -2 -45 -7 -64 -10 -19 -4 -42
-8 -50 -10 -33 -5 -165 -51 -168 -58 -2 -5 -10 -8 -19 -8 -16 0 -158 -75 -184
-96 -8 -8 -20 -14 -26 -14 -6 0 -13 -4 -15 -8 -1 -4 -24 -23 -50 -42 -27 -18
-48 -37 -48 -42 0 -5 19 -37 41 -71 59 -88 119 -188 119 -197 0 -4 7 -13 15
-20 9 -7 13 -15 11 -18 -3 -3 3 -17 13 -31 10 -14 33 -57 52 -96 19 -38 37
-71 42 -73 4 -2 7 -8 7 -13 0 -5 15 -42 34 -83 19 -41 49 -107 66 -147 18 -41
40 -92 50 -114 10 -22 30 -71 44 -110 15 -38 34 -84 42 -102 8 -17 14 -37 14
-45 0 -8 3 -18 8 -22 4 -4 7 -11 8 -14 0 -4 3 -14 7 -22 9 -25 49 -134 52
-145 18 -60 29 -70 39 -37 6 15 84 143 103 167 5 6 39 50 76 98 134 174 287
325 462 455 6 4 27 19 47 35 20 15 39 27 42 27 4 0 28 15 54 33 59 39 81 52
157 91 33 16 63 34 66 39 3 5 8 8 10 7 5 -2 28 7 129 50 41 17 80 33 85 34 6
2 19 6 30 10 11 5 37 14 58 22 20 8 37 11 37 8 0 -4 6 -2 13 4 10 8 33 15 92
28 6 1 39 9 75 17 36 9 85 18 110 22 25 4 65 10 90 14 l45 7 -70 36 c-95 48
-250 96 -365 114 -14 2 -41 6 -60 9 -77 11 -170 17 -267 19 -57 0 -103 5 -103
10 0 5 -3 7 -6 3 -4 -3 -12 -1 -20 6 -24 22 -38 32 -89 64 -27 18 -55 37 -61
42 -10 9 -152 83 -164 86 -3 1 -18 7 -35 14 -48 20 -139 50 -168 55 -15 2 -30
7 -34 9 -22 13 -336 31 -347 20z"/>
<path d="M5396 2963 c-4 -18 -12 -33 -17 -33 -5 0 -9 -6 -9 -14 0 -17 -71 -80
-127 -113 -38 -22 -181 -86 -208 -93 -5 -1 -21 -7 -35 -12 -14 -5 -95 -28
-180 -50 -157 -41 -175 -45 -220 -54 -14 -3 -54 -12 -90 -20 -36 -9 -77 -17
-91 -19 -15 -1 -31 -5 -35 -8 -5 -3 -27 -8 -49 -11 -41 -6 -70 -12 -115 -22
-14 -3 -45 -10 -70 -15 -25 -5 -56 -12 -70 -15 -14 -3 -36 -7 -50 -10 -14 -3
-32 -7 -40 -9 -8 -3 -33 -7 -55 -11 -22 -3 -43 -8 -46 -10 -3 -2 -21 -6 -40
-9 -47 -8 -202 -43 -220 -49 -8 -3 -26 -8 -41 -11 -68 -13 -94 -19 -273 -65
-244 -64 -309 -82 -425 -118 -52 -17 -120 -38 -150 -47 -30 -9 -66 -21 -80
-27 -14 -6 -56 -21 -95 -35 -73 -25 -89 -31 -220 -83 -194 -77 -462 -206 -635
-305 -36 -21 -80 -46 -98 -56 -42 -24 -275 -180 -282 -189 -3 -3 -21 -17 -40
-30 -165 -113 -490 -417 -598 -560 -15 -19 -32 -39 -38 -45 -22 -20 -134 -174
-134 -184 0 -6 -4 -11 -9 -11 -7 0 -72 -97 -124 -185 -7 -11 -19 -31 -28 -45
-9 -14 -19 -33 -22 -43 -8 -22 0 -17 108 64 89 66 255 186 290 209 121 79 393
261 402 270 7 5 15 10 19 10 3 0 20 10 37 22 18 13 34 23 37 24 12 1 70 40 70
47 0 4 4 7 10 7 5 0 33 15 63 32 29 18 61 38 72 45 38 23 240 138 310 176 72
39 459 231 530 262 22 10 46 18 53 18 6 0 12 4 12 8 0 4 19 14 43 22 23 8 67
26 98 40 31 14 60 23 63 20 3 -4 6 -1 6 5 0 7 3 11 8 10 4 -1 48 13 97 31 50
18 98 34 108 36 9 2 22 7 28 11 9 5 188 59 229 69 175 40 223 50 314 61 46 5
46 4 -16 -30 -27 -14 -68 -37 -93 -51 -25 -13 -91 -55 -147 -92 -57 -37 -107
-70 -112 -72 -5 -2 -16 -10 -25 -18 -9 -7 -56 -46 -106 -86 -98 -78 -142 -116
-218 -189 -27 -27 -50 -48 -52 -48 -2 0 -19 -16 -38 -35 -19 -19 -34 -35 -32
-35 2 0 -18 -22 -43 -49 -72 -75 -101 -108 -189 -217 -88 -109 -242 -320 -251
-344 -3 -8 -9 -17 -13 -20 -4 -3 -41 -62 -83 -132 -105 -178 -214 -407 -200
-421 3 -3 26 18 52 46 96 105 332 333 428 414 12 10 45 39 75 64 116 101 149
127 289 235 149 115 329 244 340 244 6 0 10 3 10 8 0 4 9 12 19 17 10 6 52 32
92 59 91 60 339 210 433 260 171 92 259 136 272 136 8 0 14 5 14 10 0 6 4 10
9 10 5 0 49 18 98 41 141 65 157 72 171 72 6 0 12 4 12 9 0 4 5 8 11 8 6 0 25
6 42 14 18 8 68 28 112 46 44 17 94 37 110 45 17 7 37 15 45 17 8 2 17 5 20 8
3 3 30 17 60 31 73 33 205 103 255 134 22 14 47 28 55 32 8 3 17 9 20 13 3 3
22 16 43 29 21 13 43 28 50 34 7 7 28 23 47 37 83 59 295 267 305 300 4 11 11
20 16 20 5 0 9 6 9 14 0 8 4 16 8 18 10 4 74 108 66 108 -3 0 4 13 15 28 11
16 23 41 27 58 4 16 11 35 17 42 5 6 7 12 4 12 -3 0 0 15 7 33 12 28 23 92 31
178 1 14 -1 44 -5 65 l-6 39 -8 -32z"/>
</g>
</svg>
