<svg width="1264" height="526" viewBox="0 0 1264 526" fill="none" xmlns="http://www.w3.org/2000/svg">
<path d="M219.596 515V436.6H0.496094V347.7L159.396 11H268.596L109.696 347.7H219.596V221.7H316.196V347.7H360.996V436.6H316.196V515H219.596ZM632.06 525.5C594.727 525.5 562.06 517.683 534.06 502.05C506.06 486.417 484.243 464.6 468.61 436.6C452.977 408.6 445.16 375.933 445.16 338.6V187.4C445.16 150.067 452.977 117.4 468.61 89.4C484.243 61.4 506.06 39.5833 534.06 23.95C562.06 8.31665 594.727 0.49999 632.06 0.49999C669.394 0.49999 702.06 8.31665 730.06 23.95C758.06 39.5833 779.877 61.4 795.51 89.4C811.144 117.4 818.96 150.067 818.96 187.4V338.6C818.96 375.933 811.144 408.6 795.51 436.6C779.877 464.6 758.06 486.417 730.06 502.05C702.06 517.683 669.394 525.5 632.06 525.5ZM632.06 435.2C648.86 435.2 664.027 431.233 677.56 423.3C691.094 415.367 701.827 404.633 709.76 391.1C717.694 377.567 721.66 362.4 721.66 345.6V179.7C721.66 162.9 717.694 147.733 709.76 134.2C701.827 120.667 691.094 109.933 677.56 102C664.027 94.0666 648.86 90.1 632.06 90.1C615.26 90.1 600.094 94.0666 586.56 102C573.027 109.933 562.293 120.667 554.36 134.2C546.427 147.733 542.46 162.9 542.46 179.7V345.6C542.46 362.4 546.427 377.567 554.36 391.1C562.293 404.633 573.027 415.367 586.56 423.3C600.094 431.233 615.26 435.2 632.06 435.2ZM1121.94 515V436.6H902.84V347.7L1061.74 11H1170.94L1012.04 347.7H1121.94V221.7H1218.54V347.7H1263.34V436.6H1218.54V515H1121.94Z" fill="url(#paint0_linear_364_1585)" fill-opacity="0.1"/>
<defs>
<linearGradient id="paint0_linear_364_1585" x1="632" y1="-116" x2="630.322" y2="631.393" gradientUnits="userSpaceOnUse">
<stop stop-color="#07D4D5"/>
<stop offset="1" stop-color="#1A94E1"/>
</linearGradient>
</defs>
</svg>
