<svg width="36" height="44" viewBox="0 0 36 44" fill="none" xmlns="http://www.w3.org/2000/svg">
<path d="M26.125 5.82498H30.15C31.2175 5.82498 32.2412 6.24904 32.9961 7.00388C33.7509 7.75871 34.175 8.78248 34.175 9.84998V38.025C34.175 39.0925 33.7509 40.1162 32.9961 40.8711C32.2412 41.6259 31.2175 42.05 30.15 42.05H5.99998C4.93248 42.05 3.9087 41.6259 3.15387 40.8711C2.39904 40.1162 1.97498 39.0925 1.97498 38.025V9.84998C1.97498 8.78248 2.39904 7.75871 3.15387 7.00388C3.9087 6.24904 4.93248 5.82498 5.99998 5.82498H10.025" stroke="white" stroke-width="3" stroke-linecap="round" stroke-linejoin="round"/>
<path d="M24.1125 1.8H12.0375C10.9261 1.8 10.025 2.70102 10.025 3.8125V7.8375C10.025 8.94897 10.9261 9.85 12.0375 9.85H24.1125C25.224 9.85 26.125 8.94897 26.125 7.8375V3.8125C26.125 2.70102 25.224 1.8 24.1125 1.8Z" stroke="white" stroke-width="3" stroke-linecap="round" stroke-linejoin="round"/>
</svg>
