<svg width="44" height="44" viewBox="0 0 44 44" fill="none" xmlns="http://www.w3.org/2000/svg">
<g clip-path="url(#clip0_364_1677)">
<path d="M35.8224 0.384766H14.1146L7.26367 7.2357V36.781C7.26458 37.7641 7.65576 38.7066 8.35125 39.4015C9.04673 40.0963 9.98963 40.4866 10.9727 40.4866H35.8224C36.8055 40.4866 37.7484 40.0963 38.4439 39.4015C39.1394 38.7066 39.5306 37.7641 39.5315 36.781V4.12477C39.5356 3.63509 39.4426 3.14945 39.2581 2.69587C39.0735 2.24228 38.8009 1.82974 38.4561 1.48204C38.1113 1.13434 37.701 0.858361 37.249 0.670031C36.797 0.481702 36.3121 0.384749 35.8224 0.384766Z" fill="url(#paint0_linear_364_1677)"/>
<path opacity="0.5" d="M20.4462 19.2705H8.11594C6.10165 19.2705 4.46875 20.9034 4.46875 22.9177V40.0055C4.46875 42.0198 6.10165 43.6527 8.11594 43.6527H20.4462C22.4605 43.6527 24.0934 42.0198 24.0934 40.0055V22.9177C24.0934 20.9034 22.4605 19.2705 20.4462 19.2705Z" fill="url(#paint1_linear_364_1677)"/>
<path d="M21.1235 11.3919C22.458 11.3672 23.784 11.6087 25.024 12.1023C26.2641 12.5959 27.3933 13.3317 28.3458 14.2667C29.2982 15.2017 30.0548 16.3171 30.5713 17.5478C31.0877 18.7785 31.3537 20.0998 31.3537 21.4345C31.3537 22.7692 31.0877 24.0905 30.5713 25.3212C30.0548 26.5519 29.2982 27.6674 28.3458 28.6024C27.3933 29.5373 26.2641 30.2731 25.024 30.7667C23.784 31.2603 22.458 31.5019 21.1235 31.4772" stroke="white" stroke-width="3.37" stroke-miterlimit="10" stroke-linecap="round"/>
<path d="M16.3213 31.4772L21.4329 34.43V28.5244L16.3213 31.4772Z" fill="white"/>
<path d="M8.76562 8.04711H13.8222C14.0857 8.04711 14.3383 7.94244 14.5247 7.75614C14.711 7.56983 14.8156 7.31715 14.8156 7.05367V1.64648" stroke="white" stroke-width="3.4" stroke-miterlimit="10" stroke-linecap="round"/>
</g>
<defs>
<linearGradient id="paint0_linear_364_1677" x1="35.3137" y1="1.51914" x2="17.1809" y2="33.4363" gradientUnits="userSpaceOnUse">
<stop offset="0.02" stop-color="#EEC643"/>
<stop offset="0.51" stop-color="#06D7D4"/>
<stop offset="0.58" stop-color="#09CED6"/>
<stop offset="0.99" stop-color="#1A94E1"/>
</linearGradient>
<linearGradient id="paint1_linear_364_1677" x1="4.46875" y1="31.4633" x2="24.0934" y2="31.4633" gradientUnits="userSpaceOnUse">
<stop stop-color="#06D7D4"/>
<stop offset="0.13" stop-color="#09CED6"/>
<stop offset="0.99" stop-color="#1A94E1"/>
</linearGradient>
<clipPath id="clip0_364_1677">
<rect width="44" height="44" fill="white"/>
</clipPath>
</defs>
</svg>
