<svg width="86" height="86" viewBox="0 0 86 86" fill="none" xmlns="http://www.w3.org/2000/svg">
<path d="M43 79.7448C36.5126 79.7448 30.1708 77.8211 24.7768 74.2169C19.3827 70.6127 15.1785 65.4899 12.6959 59.4963C10.2132 53.5027 9.56368 46.9075 10.8293 40.5448C12.0949 34.182 15.2189 28.3374 19.8062 23.7501C24.3935 19.1628 30.2381 16.0389 36.6008 14.7732C42.9636 13.5076 49.5588 14.1572 55.5524 16.6398C61.5459 19.1224 66.6688 23.3266 70.273 28.7207C73.8772 34.1148 75.8009 40.4565 75.8009 46.9439C75.792 55.6405 72.3334 63.9784 66.1839 70.1278C60.0345 76.2773 51.6966 79.7359 43 79.7448ZM43 29.2064C39.4918 29.2064 36.0625 30.2467 33.1456 32.1957C30.2286 34.1447 27.9552 36.9149 26.6127 40.1561C25.2702 43.3972 24.9189 46.9636 25.6033 50.4043C26.2877 53.8451 27.977 57.0056 30.4577 59.4862C32.9383 61.9668 36.0988 63.6562 39.5396 64.3406C42.9803 65.025 46.5467 64.6737 49.7878 63.3312C53.0289 61.9887 55.7992 59.7152 57.7482 56.7983C59.6972 53.8814 60.7375 50.452 60.7375 46.9439C60.7322 42.2413 58.8617 37.7328 55.5364 34.4075C52.2111 31.0822 47.7026 29.2117 43 29.2064Z" fill="url(#paint0_linear_243_666)"/>
<path d="M43 15.1844C49.2815 15.1844 55.4218 17.047 60.6447 20.5368C65.8675 24.0266 69.9382 28.9868 72.342 34.7901C74.7458 40.5934 75.3747 46.9791 74.1493 53.1399C72.9238 59.3006 69.899 64.9596 65.4574 69.4013C61.0157 73.8429 55.3567 76.8677 49.196 78.0932C43.0352 79.3186 36.6495 78.6897 30.8462 76.2859C25.0429 73.8821 20.0827 69.8114 16.5929 64.5886C13.1032 59.3657 11.2405 53.2254 11.2405 46.9439C11.2494 38.5235 14.5983 30.4505 20.5525 24.4964C26.5066 18.5422 34.5796 15.1933 43 15.1844ZM43 65.7228C46.7236 65.7295 50.3655 64.6309 53.4643 62.5663C56.5631 60.5018 58.9796 57.564 60.4076 54.1251C61.8357 50.6862 62.211 46.9008 61.4862 43.2484C60.7614 39.596 58.969 36.2409 56.336 33.6079C53.703 30.9749 50.3479 29.1825 46.6955 28.4577C43.0431 27.7329 39.2578 28.1083 35.8188 29.5363C32.3799 30.9643 29.4422 33.3808 27.3776 36.4796C25.313 39.5785 24.2145 43.2203 24.2211 46.9439C24.23 51.9217 26.2113 56.693 29.7311 60.2128C33.2509 63.7326 38.0223 65.7139 43 65.7228ZM43 13.0948C36.3053 13.0948 29.7609 15.0801 24.1945 18.7994C18.628 22.5188 14.2895 27.8053 11.7276 33.9904C9.16561 40.1755 8.49528 46.9815 9.80136 53.5475C11.1074 60.1136 14.3312 66.1449 19.0651 70.8788C23.799 75.6127 29.8303 78.8365 36.3964 80.1426C42.9625 81.4486 49.7684 80.7783 55.9535 78.2164C62.1386 75.6544 67.4251 71.3159 71.1445 65.7494C74.8639 60.183 76.8491 53.6386 76.8491 46.9439C76.8384 37.9699 73.2688 29.3664 66.9231 23.0208C60.5775 16.6752 51.9741 13.1055 43 13.0948ZM43 63.6333C39.6973 63.6346 36.4683 62.6564 33.7216 60.8223C30.9749 58.9882 28.8339 56.3807 27.5694 53.3296C26.3049 50.2785 25.9737 46.9209 26.6177 43.6816C27.2617 40.4422 28.852 37.4667 31.1874 35.1313C33.5228 32.7959 36.4984 31.2056 39.7377 30.5616C42.9771 29.9176 46.3346 30.2488 49.3857 31.5133C52.4368 32.7778 55.0443 34.9188 56.8784 37.6655C58.7125 40.4122 59.6907 43.6412 59.6894 46.9439C59.6858 51.3691 57.9264 55.6121 54.7973 58.7411C51.6682 61.8702 47.4252 63.6297 43 63.6333Z" fill="white"/>
<path d="M42.6506 80.148V58.8966" stroke="white" stroke-width="3.11" stroke-miterlimit="10"/>
<path d="M56.2292 42.57L74.2422 34.7964" stroke="white" stroke-width="3.11" stroke-miterlimit="10"/>
<path d="M30.4427 42.57L11.7578 34.1245" stroke="white" stroke-width="3.11" stroke-miterlimit="10"/>
<path d="M43 19.8942C41.3876 19.8908 39.8039 19.467 38.4053 18.6646C37.0067 17.8622 35.8415 16.709 35.0248 15.3187C34.2025 13.9149 33.7654 12.3188 33.7579 10.6919C33.7504 9.06501 34.1726 7.46496 34.9819 6.05361C35.7912 4.64226 36.9589 3.46967 38.3669 2.65442C39.7748 1.83918 41.373 1.41021 43 1.41089C44.6124 1.41425 46.1961 1.83804 47.5946 2.64044C48.9932 3.44283 50.1584 4.59608 50.9751 5.98636C51.7975 7.39016 52.2345 8.98623 52.242 10.6131C52.2496 12.24 51.8273 13.8401 51.018 15.2514C50.2087 16.6628 49.041 17.8354 47.6331 18.6506C46.2252 19.4659 44.6269 19.8949 43 19.8942Z" fill="url(#paint1_linear_243_666)"/>
<path d="M43 2.45233C44.9869 2.45052 46.9068 3.17047 48.4027 4.47825C49.8985 5.78604 50.8684 7.59263 51.1319 9.56198C51.3955 11.5313 50.9347 13.5294 49.8354 15.1844C48.736 16.8395 47.073 18.0389 45.1555 18.5596C43.238 19.0803 41.1967 18.8868 39.4112 18.0151C37.6258 17.1433 36.2177 15.6528 35.449 13.8206C34.6802 11.9884 34.6031 9.93941 35.2321 8.05467C35.861 6.16992 37.153 4.57777 38.868 3.57436C40.1216 2.84087 41.5476 2.45365 43 2.45233ZM43 0.362799C40.7313 0.360303 38.5254 1.1074 36.7251 2.48794C34.9248 3.86848 33.6311 5.80512 33.045 7.99679C32.4589 10.1885 32.6133 12.5124 33.4842 14.6072C34.3551 16.7021 35.8937 18.4505 37.8608 19.5808C39.8279 20.711 42.1133 21.1597 44.3617 20.8571C46.6101 20.5544 48.6955 19.5175 50.2938 17.9074C51.8921 16.2973 52.9136 14.2042 53.1997 11.9537C53.4857 9.70307 53.0202 7.42105 51.8755 5.46233C50.9689 3.91244 49.6729 2.62647 48.1161 1.73195C46.5592 0.837434 44.7956 0.365446 43 0.362799Z" fill="white"/>
<path d="M11.7914 73.9533C9.55199 73.9549 7.38823 73.1431 5.7026 71.6688C4.01696 70.1945 2.92423 68.1581 2.62766 65.9384C2.33109 63.7188 2.85087 61.4669 4.09033 59.6018C5.32978 57.7367 7.20451 56.3853 9.36579 55.799C11.5271 55.2126 13.8277 55.4313 15.8399 56.4143C17.852 57.3974 19.4385 59.0778 20.3044 61.143C21.1702 63.2083 21.2564 65.5177 20.547 67.6417C19.8375 69.7658 18.3807 71.5598 16.4475 72.6901C15.0341 73.5147 13.4277 73.9504 11.7914 73.9533Z" fill="url(#paint2_linear_243_666)"/>
<path d="M11.778 56.5181C13.7649 56.5163 15.6848 57.2363 17.1807 58.5441C18.6765 59.8518 19.6464 61.6584 19.9099 63.6278C20.1734 65.5971 19.7127 67.5952 18.6134 69.2502C17.514 70.9053 15.851 72.1047 13.9335 72.6254C12.016 73.1461 9.97469 72.9526 8.18922 72.0809C6.40375 71.2091 4.99569 69.7186 4.22695 67.8864C3.45821 66.0542 3.38112 64.0052 4.01003 62.1205C4.63894 60.2357 5.93103 58.6436 7.64596 57.6402C8.89945 56.9064 10.3255 56.5191 11.778 56.5181ZM11.778 54.4286C9.50943 54.4284 7.30437 55.1777 5.50556 56.56C3.70676 57.9423 2.41499 59.8801 1.83104 62.0722C1.2471 64.2643 1.4037 66.5879 2.2765 68.6819C3.1493 70.7758 4.6894 72.5228 6.65741 73.6512C8.62542 74.7796 10.9111 75.2262 13.1591 74.9217C15.4071 74.6171 17.4916 73.5785 19.0884 71.9671C20.6853 70.3558 21.7051 68.2621 21.9893 66.0114C22.2736 63.7607 21.8063 61.4791 20.6602 59.5214C19.7551 57.9687 18.4585 56.6806 16.8999 55.7858C15.3413 54.8909 13.5752 54.4207 11.778 54.4219V54.4286Z" fill="white"/>
<path d="M74.222 73.9533C72.8084 73.9544 71.4134 73.631 70.1445 73.0082C68.8755 72.3853 67.7664 71.4795 66.9025 70.3606C66.0387 69.2417 65.4431 67.9395 65.1617 66.5542C64.8803 65.1689 64.9205 63.7375 65.2793 62.3702C65.7992 60.3968 66.9564 58.6503 68.5712 57.4025C70.186 56.1547 72.1678 55.4753 74.2086 55.47C75.4432 55.4367 76.6719 55.6512 77.8223 56.1006C78.9726 56.5501 80.0213 57.2255 80.9063 58.087C81.7913 58.9484 82.4947 59.9785 82.975 61.1163C83.4553 62.2541 83.7028 63.4766 83.7028 64.7117C83.7028 65.9467 83.4553 67.1692 82.975 68.3071C82.4947 69.4449 81.7913 70.4749 80.9063 71.3364C80.0213 72.1979 78.9726 72.8733 77.8223 73.3227C76.6719 73.7722 75.4432 73.9866 74.2086 73.9533H74.222Z" fill="url(#paint3_linear_243_666)"/>
<path d="M74.2086 56.5181C76.1975 56.5143 78.1202 57.2331 79.6187 58.5409C81.1173 59.8488 82.0897 61.6565 82.3549 63.6277C82.6202 65.5989 82.1602 67.5994 81.0607 69.2568C79.9611 70.9142 78.2969 72.1157 76.3776 72.6377C74.4584 73.1597 72.4148 72.9667 70.6273 72.0945C68.8397 71.2224 67.4299 69.7305 66.6602 67.8964C65.8905 66.0624 65.8133 64.0113 66.443 62.1246C67.0726 60.2379 68.3663 58.6442 70.0833 57.6402C71.3348 56.9075 72.7584 56.5203 74.2086 56.5181ZM74.2086 54.4286C71.9439 54.4316 69.7437 55.1824 67.9495 56.5643C66.1554 57.9463 64.8678 59.882 64.2867 62.0708C63.7057 64.2597 63.8637 66.5791 64.7363 68.6689C65.6088 70.7587 67.147 72.5019 69.112 73.6277C71.077 74.7536 73.3587 75.199 75.6029 74.8948C77.847 74.5907 79.9279 73.554 81.5224 71.9458C83.1168 70.3376 84.1356 68.2478 84.4204 66.0012C84.7052 63.7545 84.2402 61.4766 83.0975 59.5214C82.1923 57.9673 80.8948 56.6782 79.3348 55.7832C77.7748 54.8883 76.0071 54.4188 74.2086 54.4219V54.4286Z" fill="white"/>
<path d="M42.9529 64.2379C39.498 64.2379 36.1206 63.2134 33.2478 61.2939C30.3751 59.3744 28.1361 56.6462 26.8139 53.4542C25.4918 50.2622 25.1458 46.7498 25.8199 43.3612C26.4939 39.9726 28.1576 36.86 30.6007 34.4169C33.0437 31.9739 36.1564 30.3101 39.545 29.6361C42.9336 28.962 46.446 29.308 49.638 30.6302C52.8299 31.9523 55.5582 34.1913 57.4777 37.0641C59.3972 39.9368 60.4217 43.3142 60.4217 46.7692C60.4111 51.3989 58.5672 55.836 55.2935 59.1097C52.0197 62.3834 47.5827 64.2273 42.9529 64.2379Z" fill="url(#paint4_linear_243_666)"/>
<path d="M42.953 30.4292C46.1804 30.4305 49.335 31.3888 52.0179 33.1828C54.7008 34.9769 56.7915 37.5262 58.0257 40.5083C59.2599 43.4905 59.5821 46.7717 58.9517 49.937C58.3212 53.1023 56.7664 56.0096 54.4837 58.2913C52.2011 60.573 49.2932 62.1266 46.1276 62.7558C42.9621 63.3849 39.681 63.0614 36.6994 61.826C33.7177 60.5905 31.1693 58.4988 29.3763 55.8151C27.5834 53.1315 26.6264 49.9765 26.6264 46.749C26.6264 44.6053 27.0487 42.4826 27.8693 40.5021C28.6899 38.5217 29.8926 36.7223 31.4087 35.2068C32.9249 33.6913 34.7248 32.4893 36.7056 31.6695C38.6863 30.8498 40.8092 30.4283 42.953 30.4292ZM42.953 28.0978C39.2641 28.0978 35.6581 29.1917 32.5909 31.2411C29.5237 33.2905 27.1331 36.2034 25.7214 39.6115C24.3098 43.0196 23.9404 46.7697 24.6601 50.3877C25.3797 54.0057 27.1561 57.329 29.7645 59.9375C32.373 62.5459 35.6963 64.3222 39.3143 65.0419C42.9323 65.7616 46.6824 65.3922 50.0905 63.9805C53.4986 62.5689 56.4115 60.1783 58.4609 57.1111C60.5103 54.0439 61.6042 50.4379 61.6042 46.749C61.5971 41.8046 59.6298 37.0647 56.1335 33.5685C52.6373 30.0722 47.8974 28.1049 42.953 28.0978Z" fill="white"/>
<path opacity="0.5" d="M6.59106 47.8979C6.64079 57.5625 10.5149 66.8143 17.3665 73.6307C24.2181 80.447 33.4898 84.2734 43.1545 84.2733C52.8198 84.2734 62.0922 80.4472 68.9449 73.6311C75.7975 66.8149 79.6732 57.5632 79.7247 47.8979H6.59106Z" fill="url(#paint5_linear_243_666)"/>
<defs>
<linearGradient id="paint0_linear_243_666" x1="59.125" y1="27.0967" x2="12.2886" y2="84.7436" gradientUnits="userSpaceOnUse">
<stop offset="0.02" stop-color="#E08DAC"/>
<stop offset="0.46" stop-color="#06D7D4"/>
<stop offset="0.53" stop-color="#09CED6"/>
<stop offset="0.99" stop-color="#1A94E1"/>
</linearGradient>
<linearGradient id="paint1_linear_243_666" x1="40.5812" y1="13.6323" x2="-10.5149" y2="76.5131" gradientUnits="userSpaceOnUse">
<stop offset="0.02" stop-color="#E08DAC"/>
<stop offset="0.46" stop-color="#06D7D4"/>
<stop offset="0.53" stop-color="#09CED6"/>
<stop offset="0.99" stop-color="#1A94E1"/>
</linearGradient>
<linearGradient id="paint2_linear_243_666" x1="53.1587" y1="13.7936" x2="2.06264" y2="76.6743" gradientUnits="userSpaceOnUse">
<stop offset="0.02" stop-color="#E08DAC"/>
<stop offset="0.46" stop-color="#06D7D4"/>
<stop offset="0.53" stop-color="#09CED6"/>
<stop offset="0.99" stop-color="#1A94E1"/>
</linearGradient>
<linearGradient id="paint3_linear_243_666" x1="87.6192" y1="48.2138" x2="36.5298" y2="111.101" gradientUnits="userSpaceOnUse">
<stop offset="0.02" stop-color="#E08DAC"/>
<stop offset="0.46" stop-color="#06D7D4"/>
<stop offset="0.53" stop-color="#09CED6"/>
<stop offset="0.99" stop-color="#1A94E1"/>
</linearGradient>
<linearGradient id="paint4_linear_243_666" x1="61.5169" y1="23.8918" x2="7.32341" y2="90.5956" gradientUnits="userSpaceOnUse">
<stop offset="0.02" stop-color="#E08DAC"/>
<stop offset="0.46" stop-color="#06D7D4"/>
<stop offset="0.53" stop-color="#09CED6"/>
<stop offset="0.99" stop-color="#1A94E1"/>
</linearGradient>
<linearGradient id="paint5_linear_243_666" x1="43.1545" y1="84.2733" x2="43.1545" y2="47.8979" gradientUnits="userSpaceOnUse">
<stop stop-color="#06D7D4"/>
<stop offset="0.13" stop-color="#09CED6"/>
<stop offset="0.99" stop-color="#1A94E1"/>
</linearGradient>
</defs>
</svg>
