<svg width="48" height="48" viewBox="0 0 48 48" fill="none" xmlns="http://www.w3.org/2000/svg">
<g clip-path="url(#clip0_364_1652)">
<path d="M23.9999 44.5086C20.379 44.5086 16.8394 43.4348 13.8288 41.4232C10.8181 39.4115 8.47162 36.5523 7.08597 33.207C5.70032 29.8618 5.33777 26.1808 6.04416 22.6294C6.75056 19.0781 8.49418 15.8161 11.0545 13.2557C13.6149 10.6954 16.877 8.95174 20.4283 8.24534C23.9796 7.53894 27.6606 7.90149 31.0059 9.28714C34.3511 10.6728 37.2104 13.0193 39.222 16.03C41.2337 19.0406 42.3074 22.5802 42.3074 26.2011C42.3024 31.055 40.372 35.7087 36.9398 39.1409C33.5075 42.5732 28.8538 44.5036 23.9999 44.5086ZM23.9999 16.3011C22.0419 16.3011 20.1278 16.8817 18.4997 17.9695C16.8717 19.0573 15.6028 20.6035 14.8535 22.4125C14.1042 24.2215 13.9081 26.212 14.2901 28.1325C14.6721 30.0529 15.615 31.8169 16.9995 33.2014C18.3841 34.586 20.1481 35.5288 22.0685 35.9108C23.9889 36.2928 25.9795 36.0968 27.7885 35.3475C29.5974 34.5982 31.1436 33.3293 32.2314 31.7012C33.3193 30.0732 33.8999 28.1591 33.8999 26.2011C33.8969 23.5763 32.8529 21.06 30.997 19.204C29.141 17.348 26.6246 16.304 23.9999 16.3011Z" fill="url(#paint0_linear_364_1652)"/>
<path d="M23.9999 8.47484C27.5059 8.47484 30.933 9.51447 33.8481 11.4623C36.7632 13.41 39.0352 16.1785 40.3768 19.4176C41.7185 22.6566 42.0695 26.2208 41.3856 29.6593C40.7016 33.0979 39.0133 36.2564 36.5343 38.7354C34.0552 41.2145 30.8967 42.9028 27.4581 43.5867C24.0196 44.2707 20.4554 43.9197 17.2164 42.578C13.9773 41.2364 11.2089 38.9643 9.26109 36.0493C7.31331 33.1342 6.27368 29.707 6.27368 26.2011C6.27864 21.5013 8.14782 16.9955 11.4711 13.6722C14.7943 10.349 19.3002 8.47981 23.9999 8.47484ZM23.9999 36.6823C26.0782 36.6861 28.1109 36.0729 29.8405 34.9206C31.57 33.7683 32.9188 32.1286 33.7158 30.2092C34.5129 28.2898 34.7224 26.1771 34.3178 24.1385C33.9133 22.1 32.9129 20.2273 31.4433 18.7577C29.9737 17.2882 28.1011 16.2877 26.0625 15.8832C24.024 15.4787 21.9112 15.6882 19.9918 16.4852C18.0724 17.2823 16.4328 18.631 15.2804 20.3606C14.1281 22.0901 13.515 24.1228 13.5187 26.2011C13.5236 28.9794 14.6295 31.6424 16.594 33.607C18.5586 35.5715 21.2217 36.6774 23.9999 36.6823ZM23.9999 7.30859C20.2633 7.30859 16.6107 8.41662 13.5038 10.4926C10.397 12.5685 7.97546 15.5191 6.54554 18.9712C5.11561 22.4234 4.74147 26.2221 5.47044 29.8868C6.19942 33.5516 7.99875 36.9179 10.6409 39.5601C13.2831 42.2023 16.6494 44.0016 20.3142 44.7306C23.979 45.4596 27.7776 45.0854 31.2298 43.6555C34.6819 42.2256 37.6325 39.8041 39.7085 36.6972C41.7844 33.5904 42.8924 29.9377 42.8924 26.2011C42.8865 21.1923 40.8941 16.3904 37.3524 12.8487C33.8106 9.30692 29.0087 7.31455 23.9999 7.30859ZM23.9999 35.5161C22.1565 35.5168 20.3543 34.9708 18.8213 33.9472C17.2883 32.9235 16.0933 31.4681 15.3875 29.7652C14.6817 28.0623 14.4969 26.1883 14.8563 24.3803C15.2158 22.5723 16.1034 20.9115 17.4068 19.608C18.7103 18.3045 20.3711 17.4169 22.1791 17.0575C23.9871 16.698 25.8611 16.8829 27.564 17.5887C29.267 18.2944 30.7223 19.4894 31.746 21.0225C32.7697 22.5555 33.3157 24.3577 33.3149 26.2011C33.3129 28.671 32.3309 31.0391 30.5844 32.7856C28.838 34.5321 26.4698 35.5141 23.9999 35.5161Z" fill="white"/>
<path d="M23.8049 44.7338V32.8726" stroke="white" stroke-width="3.11" stroke-miterlimit="10"/>
<path d="M31.3838 23.7601L41.4375 19.4214" stroke="white" stroke-width="3.11" stroke-miterlimit="10"/>
<path d="M16.9913 23.7601L6.5625 19.0464" stroke="white" stroke-width="3.11" stroke-miterlimit="10"/>
<path d="M24 11.1038C23.1 11.102 22.2161 10.8654 21.4355 10.4176C20.6549 9.96974 20.0046 9.32607 19.5487 8.5501C19.0897 7.76658 18.8458 6.87575 18.8416 5.96771C18.8374 5.05967 19.0731 4.16662 19.5248 3.37889C19.9765 2.59116 20.6282 1.93668 21.414 1.48166C22.1999 1.02664 23.0919 0.787217 24 0.787598C24.8999 0.789473 25.7838 1.02601 26.5644 1.47386C27.345 1.9217 27.9954 2.56538 28.4512 3.34135C28.9102 4.12486 29.1541 5.01569 29.1583 5.92374C29.1625 6.83178 28.9269 7.72483 28.4751 8.51256C28.0234 9.30029 27.3717 9.95476 26.5859 10.4098C25.8001 10.8648 24.908 11.1042 24 11.1038Z" fill="url(#paint1_linear_364_1652)"/>
<path d="M24.0001 1.36889C25.1091 1.36788 26.1807 1.76971 27.0155 2.49964C27.8504 3.22957 28.3918 4.23789 28.5388 5.33707C28.6859 6.43624 28.4288 7.55142 27.8152 8.47518C27.2016 9.39895 26.2734 10.0684 25.2032 10.359C24.133 10.6496 22.9936 10.5416 21.9971 10.0551C21.0005 9.56852 20.2146 8.73658 19.7856 7.71397C19.3565 6.69137 19.3135 5.54773 19.6645 4.49578C20.0155 3.44382 20.7367 2.55518 21.6939 1.99514C22.3935 1.58575 23.1894 1.36963 24.0001 1.36889ZM24.0001 0.20264C22.7339 0.201247 21.5026 0.61823 20.4978 1.38877C19.493 2.1593 18.7709 3.24022 18.4438 4.46347C18.1167 5.68673 18.2029 6.98379 18.6889 8.15302C19.175 9.32224 20.0338 10.2981 21.1317 10.929C22.2296 11.5598 23.5052 11.8102 24.7601 11.6413C26.015 11.4724 27.179 10.8936 28.0711 9.99496C28.9631 9.09629 29.5333 7.92809 29.6929 6.67195C29.8526 5.41582 29.5928 4.14213 28.9539 3.04889C28.4479 2.18384 27.7245 1.46609 26.8556 0.966819C25.9866 0.467552 25.0023 0.204117 24.0001 0.20264Z" fill="white"/>
<path d="M6.58146 41.2764C5.33156 41.2773 4.12388 40.8242 3.18306 40.0013C2.24224 39.1785 1.63234 38.0419 1.46682 36.803C1.30129 35.5641 1.5914 34.3073 2.28319 33.2663C2.97498 32.2253 4.02134 31.471 5.22764 31.1437C6.43393 30.8165 7.71803 30.9386 8.84107 31.4872C9.9641 32.0359 10.8496 32.9738 11.3329 34.1265C11.8162 35.2792 11.8643 36.5681 11.4683 37.7537C11.0723 38.9392 10.2592 39.9405 9.18021 40.5714C8.39134 41.0316 7.49474 41.2748 6.58146 41.2764Z" fill="url(#paint2_linear_364_1652)"/>
<path d="M6.57399 31.545C7.68296 31.544 8.75455 31.9458 9.58943 32.6758C10.4243 33.4057 10.9656 34.414 11.1127 35.5132C11.2598 36.6124 11.0027 37.7275 10.3891 38.6513C9.7755 39.5751 8.84727 40.2445 7.77706 40.5351C6.70684 40.8257 5.5675 40.7177 4.57096 40.2312C3.57441 39.7446 2.78852 38.9127 2.35945 37.8901C1.93039 36.8675 1.88737 35.7238 2.23839 34.6719C2.58941 33.6199 3.31057 32.7313 4.26774 32.1713C4.96736 31.7617 5.76331 31.5456 6.57399 31.545ZM6.57399 30.3788C5.30782 30.3787 4.07708 30.7969 3.0731 31.5684C2.06912 32.3399 1.34813 33.4214 1.0222 34.6449C0.696283 35.8685 0.783687 37.1654 1.27083 38.3341C1.75798 39.5028 2.61757 40.4778 3.71599 41.1076C4.81442 41.7374 6.09014 41.9867 7.34485 41.8167C8.59956 41.6468 9.76297 41.0671 10.6542 40.1677C11.5455 39.2684 12.1147 38.0998 12.2733 36.8436C12.432 35.5874 12.1712 34.3139 11.5315 33.2212C11.0263 32.3546 10.3027 31.6357 9.43274 31.1363C8.56282 30.6368 7.57709 30.3743 6.57399 30.375V30.3788Z" fill="white"/>
<path d="M41.4262 41.2761C40.6372 41.2767 39.8587 41.0963 39.1504 40.7486C38.4421 40.401 37.8231 39.8954 37.3409 39.2709C36.8588 38.6464 36.5264 37.9196 36.3693 37.1464C36.2123 36.3732 36.2347 35.5743 36.435 34.8111C36.7251 33.7097 37.371 32.7349 38.2723 32.0385C39.1736 31.342 40.2797 30.9628 41.4187 30.9599C42.1078 30.9413 42.7936 31.061 43.4357 31.3118C44.0777 31.5627 44.663 31.9397 45.157 32.4205C45.6509 32.9013 46.0435 33.4762 46.3116 34.1113C46.5797 34.7463 46.7178 35.4287 46.7178 36.118C46.7178 36.8073 46.5797 37.4897 46.3116 38.1247C46.0435 38.7598 45.6509 39.3347 45.157 39.8155C44.663 40.2963 44.0777 40.6733 43.4357 40.9242C42.7936 41.175 42.1078 41.2947 41.4187 41.2761H41.4262Z" fill="url(#paint3_linear_364_1652)"/>
<path d="M41.4188 31.545C42.5289 31.5428 43.602 31.9441 44.4384 32.674C45.2748 33.404 45.8175 34.4129 45.9656 35.5131C46.1136 36.6133 45.8569 37.7299 45.2432 38.655C44.6295 39.58 43.7007 40.2506 42.6294 40.542C41.5582 40.8333 40.4176 40.7256 39.4199 40.2388C38.4222 39.752 37.6354 38.9193 37.2057 37.8957C36.7761 36.8721 36.733 35.7272 37.0845 34.6742C37.4359 33.6212 38.158 32.7317 39.1163 32.1713C39.8148 31.7623 40.6094 31.5462 41.4188 31.545ZM41.4188 30.3788C40.1548 30.3804 38.9267 30.7995 37.9254 31.5708C36.924 32.3421 36.2053 33.4225 35.881 34.6442C35.5567 35.8659 35.6449 37.1604 36.1319 38.3268C36.6189 39.4932 37.4775 40.4662 38.5742 41.0946C39.6709 41.7229 40.9445 41.9715 42.197 41.8018C43.4496 41.632 44.611 41.0534 45.5009 40.1558C46.3908 39.2582 46.9594 38.0918 47.1184 36.8379C47.2774 35.5839 47.0178 34.3125 46.38 33.2213C45.8749 32.3538 45.1507 31.6343 44.28 31.1348C43.4092 30.6353 42.4226 30.3733 41.4188 30.375V30.3788Z" fill="white"/>
<path d="M23.9736 35.8535C22.0453 35.8535 20.1602 35.2817 18.5568 34.2104C16.9534 33.139 15.7038 31.6163 14.9658 29.8347C14.2279 28.0531 14.0348 26.0927 14.411 24.2014C14.7872 22.3101 15.7158 20.5728 17.0793 19.2092C18.4429 17.8457 20.1802 16.9171 22.0715 16.5409C23.9628 16.1647 25.9232 16.3577 27.7048 17.0957C29.4864 17.8336 31.0091 19.0833 32.0805 20.6867C33.1518 22.2901 33.7236 24.1752 33.7236 26.1035C33.7177 28.6876 32.6886 31.1641 30.8614 32.9912C29.0342 34.8184 26.5577 35.8476 23.9736 35.8535Z" fill="url(#paint4_linear_364_1652)"/>
<path d="M23.9737 16.9839C25.7751 16.9846 27.5358 17.5195 29.0333 18.5208C30.5307 19.5221 31.6976 20.945 32.3864 22.6094C33.0753 24.2739 33.2551 26.1053 32.9032 27.8719C32.5514 29.6386 31.6835 31.2613 30.4095 32.5348C29.1355 33.8083 27.5124 34.6755 25.7456 35.0266C23.9788 35.3778 22.1475 35.1972 20.4833 34.5076C18.8192 33.8181 17.3968 32.6506 16.3961 31.1528C15.3953 29.6549 14.8612 27.894 14.8612 26.0926C14.8612 24.8961 15.097 23.7114 15.5549 22.606C16.0129 21.5006 16.6842 20.4963 17.5304 19.6504C18.3767 18.8046 19.3812 18.1337 20.4868 17.6762C21.5924 17.2186 22.7772 16.9834 23.9737 16.9839ZM23.9737 15.6826C21.9148 15.6826 19.9022 16.2932 18.1902 17.437C16.4783 18.5809 15.144 20.2067 14.3561 22.1089C13.5682 24.0111 13.3621 26.1042 13.7638 28.1235C14.1654 30.1428 15.1569 31.9977 16.6127 33.4536C18.0686 34.9095 19.9235 35.9009 21.9428 36.3026C23.9622 36.7043 26.0553 36.4981 27.9575 35.7102C29.8596 34.9223 31.4855 33.588 32.6293 31.8761C33.7732 30.1642 34.3837 28.1515 34.3837 26.0926C34.3798 23.3329 33.2817 20.6874 31.3303 18.736C29.3789 16.7846 26.7334 15.6866 23.9737 15.6826Z" fill="white"/>
<path opacity="0.5" d="M3.67871 26.7339C3.70647 32.1281 5.86878 37.2919 9.69293 41.0963C13.5171 44.9008 18.6919 47.0365 24.0862 47.0364C29.4808 47.0365 34.6561 44.9009 38.4808 41.0966C42.3056 37.2922 44.4687 32.1284 44.4975 26.7339H3.67871Z" fill="url(#paint5_linear_364_1652)"/>
</g>
<defs>
<linearGradient id="paint0_linear_364_1652" x1="32.9999" y1="15.1236" x2="6.85864" y2="47.2986" gradientUnits="userSpaceOnUse">
<stop offset="0.02" stop-color="#E08DAC"/>
<stop offset="0.46" stop-color="#06D7D4"/>
<stop offset="0.53" stop-color="#09CED6"/>
<stop offset="0.99" stop-color="#1A94E1"/>
</linearGradient>
<linearGradient id="paint1_linear_364_1652" x1="22.65" y1="7.60885" x2="-5.86879" y2="42.7051" gradientUnits="userSpaceOnUse">
<stop offset="0.02" stop-color="#E08DAC"/>
<stop offset="0.46" stop-color="#06D7D4"/>
<stop offset="0.53" stop-color="#09CED6"/>
<stop offset="0.99" stop-color="#1A94E1"/>
</linearGradient>
<linearGradient id="paint2_linear_364_1652" x1="29.6702" y1="7.69887" x2="1.15146" y2="42.7951" gradientUnits="userSpaceOnUse">
<stop offset="0.02" stop-color="#E08DAC"/>
<stop offset="0.46" stop-color="#06D7D4"/>
<stop offset="0.53" stop-color="#09CED6"/>
<stop offset="0.99" stop-color="#1A94E1"/>
</linearGradient>
<linearGradient id="paint3_linear_364_1652" x1="48.9037" y1="26.9099" x2="20.3887" y2="62.0099" gradientUnits="userSpaceOnUse">
<stop offset="0.02" stop-color="#E08DAC"/>
<stop offset="0.46" stop-color="#06D7D4"/>
<stop offset="0.53" stop-color="#09CED6"/>
<stop offset="0.99" stop-color="#1A94E1"/>
</linearGradient>
<linearGradient id="paint4_linear_364_1652" x1="34.3349" y1="13.3348" x2="4.08738" y2="50.5648" gradientUnits="userSpaceOnUse">
<stop offset="0.02" stop-color="#E08DAC"/>
<stop offset="0.46" stop-color="#06D7D4"/>
<stop offset="0.53" stop-color="#09CED6"/>
<stop offset="0.99" stop-color="#1A94E1"/>
</linearGradient>
<linearGradient id="paint5_linear_364_1652" x1="24.0862" y1="47.0364" x2="24.0862" y2="26.7339" gradientUnits="userSpaceOnUse">
<stop stop-color="#06D7D4"/>
<stop offset="0.13" stop-color="#09CED6"/>
<stop offset="0.99" stop-color="#1A94E1"/>
</linearGradient>
<clipPath id="clip0_364_1652">
<rect width="48" height="48" fill="white"/>
</clipPath>
</defs>
</svg>
