<svg width="41" height="41" viewBox="0 0 41 41" fill="none" xmlns="http://www.w3.org/2000/svg">
<g clip-path="url(#clip0_364_1673)">
<path opacity="0.5" d="M12.6011 26.9862L17.0182 29.9651C17.0515 29.9901 17.0919 30.0036 17.1335 30.0036C17.1751 30.0036 17.2156 29.9901 17.2488 29.9651L33.7545 16.0988C33.7894 16.0627 33.8371 16.0419 33.8873 16.041C33.9374 16.0401 33.9859 16.0592 34.022 16.094C34.0581 16.1288 34.0789 16.1766 34.0798 16.2268C34.0807 16.2769 34.0616 16.3254 34.0268 16.3615L21.3777 32.6718C21.3614 32.6921 21.3497 32.7156 21.3431 32.7408C21.3365 32.766 21.3353 32.7922 21.3395 32.8179C21.3438 32.8436 21.3533 32.8681 21.3676 32.8898C21.3819 32.9115 21.4006 32.93 21.4225 32.9441L28.7673 37.8993C29.2239 38.2035 29.7475 38.3924 30.2931 38.4498C30.8388 38.5072 31.3902 38.4314 31.9001 38.2289C32.41 38.0264 32.8632 37.7032 33.2208 37.2871C33.5784 36.8709 33.8297 36.3743 33.9531 35.8397L40.3338 8.3921C40.3753 8.22055 40.3665 8.04064 40.3082 7.87401C40.2499 7.70738 40.1448 7.56113 40.0054 7.45285C39.866 7.34457 39.6982 7.27887 39.5224 7.26366C39.3465 7.24845 39.17 7.28437 39.0141 7.3671L12.9118 21.1758C12.3938 21.4498 11.9557 21.8533 11.6401 22.3471C11.3244 22.8408 11.1421 23.4079 11.1108 23.993C11.0795 24.5782 11.2003 25.1614 11.4615 25.686C11.7227 26.2106 12.1153 26.6585 12.6011 26.9862Z" fill="url(#paint0_linear_364_1673)"/>
<path d="M2.56263 25.8747L8.25138 29.7184C8.29395 29.7501 8.34563 29.7673 8.39872 29.7673C8.45181 29.7673 8.50349 29.7501 8.54607 29.7184L29.7892 11.8514C29.8345 11.8188 29.8895 11.8028 29.9452 11.806C30.0009 11.8092 30.0537 11.8315 30.095 11.869C30.1362 11.9065 30.1634 11.957 30.1718 12.0121C30.1803 12.0672 30.1696 12.1235 30.1415 12.1717L13.844 33.1746C13.8235 33.201 13.8086 33.2315 13.8003 33.2639C13.792 33.2964 13.7905 33.3303 13.796 33.3633C13.8014 33.3964 13.8136 33.428 13.8317 33.4562C13.8499 33.4843 13.8738 33.5084 13.9017 33.5269L23.3541 39.9011C23.9405 40.2964 24.6141 40.5433 25.3171 40.6204C26.02 40.6975 26.7311 40.6026 27.3893 40.3438C28.0474 40.0851 28.6327 39.6702 29.0949 39.135C29.557 38.5997 29.8822 37.9602 30.0422 37.2714L38.239 1.94411C38.2901 1.72424 38.2769 1.4943 38.2008 1.28177C38.1247 1.06925 37.989 0.88312 37.81 0.745634C37.6309 0.608148 37.4161 0.525117 37.1912 0.506463C36.9662 0.487808 36.7406 0.534319 36.5414 0.640437L2.947 18.3986C2.28103 18.7522 1.71809 19.2724 1.31308 19.9084C0.90808 20.5445 0.674844 21.2746 0.636127 22.0277C0.59741 22.7807 0.754534 23.5309 1.09217 24.2052C1.42981 24.8794 1.93644 25.4546 2.56263 25.8747Z" fill="url(#paint1_linear_364_1673)"/>
<path d="M8.48828 29.4016L29.6802 12.1047C29.7106 12.0782 29.7499 12.0642 29.7903 12.0655C29.8306 12.0668 29.8689 12.0832 29.8977 12.1115C29.9264 12.1399 29.9434 12.178 29.9452 12.2183C29.9471 12.2586 29.9336 12.2981 29.9076 12.3289L13.9336 32.925" stroke="white" stroke-width="3.41" stroke-miterlimit="10" stroke-linecap="round"/>
</g>
<defs>
<linearGradient id="paint0_linear_364_1673" x1="11.1052" y1="22.867" x2="40.3594" y2="22.867" gradientUnits="userSpaceOnUse">
<stop stop-color="#06D7D4"/>
<stop offset="0.13" stop-color="#09CED6"/>
<stop offset="0.99" stop-color="#1A94E1"/>
</linearGradient>
<linearGradient id="paint1_linear_364_1673" x1="31.6566" y1="4.70841" x2="5.5095" y2="44.1869" gradientUnits="userSpaceOnUse">
<stop stop-color="#9368B7"/>
<stop offset="0.46" stop-color="#06D7D4"/>
<stop offset="0.53" stop-color="#09CED6"/>
<stop offset="0.99" stop-color="#1A94E1"/>
</linearGradient>
<clipPath id="clip0_364_1673">
<rect width="41" height="41" fill="white"/>
</clipPath>
</defs>
</svg>
