<svg width="68" height="68" viewBox="0 0 68 68" fill="none" xmlns="http://www.w3.org/2000/svg">
<path opacity="0.5" d="M20.8994 44.7578L28.2253 49.6984C28.2805 49.7398 28.3476 49.7622 28.4166 49.7622C28.4855 49.7622 28.5526 49.7398 28.6078 49.6984L55.9831 26.7006C56.0409 26.6407 56.1201 26.6062 56.2033 26.6047C56.2865 26.6032 56.3668 26.6349 56.4267 26.6926C56.4866 26.7504 56.5211 26.8296 56.5226 26.9128C56.5241 26.996 56.4925 27.0763 56.4347 27.1362L35.4556 54.1875C35.4287 54.2212 35.4092 54.2602 35.3983 54.3019C35.3874 54.3437 35.3854 54.3872 35.3924 54.4298C35.3994 54.4724 35.4153 54.513 35.439 54.549C35.4627 54.5851 35.4937 54.6157 35.53 54.639L47.7116 62.8575C48.4689 63.362 49.3372 63.6753 50.2422 63.7705C51.1472 63.8657 52.0618 63.74 52.9075 63.4041C53.7532 63.0682 54.5048 62.5322 55.0979 61.8421C55.6909 61.1519 56.1077 60.3282 56.3125 59.4415L66.895 13.9187C66.9639 13.6342 66.9492 13.3358 66.8526 13.0594C66.756 12.7831 66.5816 12.5405 66.3504 12.3609C66.1191 12.1813 65.841 12.0724 65.5493 12.0472C65.2576 12.0219 64.9649 12.0815 64.7062 12.2187L21.4147 35.1209C20.5556 35.5754 19.8289 36.2447 19.3054 37.0635C18.782 37.8824 18.4795 38.8229 18.4276 39.7934C18.3757 40.7639 18.5762 41.7313 19.0093 42.6013C19.4425 43.4713 20.0937 44.2143 20.8994 44.7578Z" fill="url(#paint0_linear_243_633)"/>
<path d="M4.25001 42.9144L13.685 49.2894C13.7556 49.342 13.8413 49.3704 13.9294 49.3704C14.0174 49.3704 14.1031 49.342 14.1738 49.2894L49.4063 19.6562C49.4813 19.6023 49.5727 19.5758 49.665 19.5811C49.7573 19.5864 49.845 19.6232 49.9134 19.6854C49.9818 19.7476 50.0268 19.8314 50.0409 19.9228C50.0549 20.0142 50.0372 20.1076 49.9906 20.1875L22.9606 55.0216C22.9265 55.0654 22.9018 55.1159 22.8881 55.1698C22.8744 55.2236 22.8719 55.2798 22.8809 55.3346C22.8899 55.3895 22.9101 55.4419 22.9403 55.4886C22.9704 55.5353 23.0099 55.5752 23.0563 55.6059L38.7334 66.1778C39.7059 66.8334 40.8232 67.2428 41.9891 67.3707C43.1549 67.4986 44.3344 67.3412 45.4259 66.912C46.5174 66.4829 47.4882 65.7948 48.2547 64.9071C49.0212 64.0194 49.5604 62.9586 49.8259 61.8162L63.4206 3.22468C63.5054 2.86001 63.4834 2.47865 63.3572 2.12617C63.231 1.77368 63.006 1.46499 62.709 1.23696C62.4121 1.00894 62.0558 0.871227 61.6827 0.840288C61.3096 0.809349 60.9354 0.886489 60.605 1.06249L4.88751 30.515C3.78297 31.1015 2.84931 31.9643 2.17759 33.0192C1.50588 34.0741 1.11905 35.2851 1.05483 36.534C0.99062 37.783 1.25122 39.0272 1.8112 40.1455C2.37119 41.2637 3.21144 42.2177 4.25001 42.9144Z" fill="url(#paint1_linear_243_633)"/>
<path d="M14.0781 48.7634L49.2256 20.0759C49.2761 20.032 49.3413 20.0088 49.4082 20.0109C49.4751 20.013 49.5387 20.0402 49.5864 20.0872C49.634 20.1342 49.6622 20.1974 49.6652 20.2643C49.6683 20.3311 49.646 20.3967 49.6028 20.4478L23.1094 54.6072" stroke="white" stroke-width="3.41" stroke-miterlimit="10" stroke-linecap="round"/>
<defs>
<linearGradient id="paint0_linear_243_633" x1="18.4184" y1="37.9259" x2="66.9375" y2="37.9259" gradientUnits="userSpaceOnUse">
<stop stop-color="#06D7D4"/>
<stop offset="0.13" stop-color="#09CED6"/>
<stop offset="0.99" stop-color="#1A94E1"/>
</linearGradient>
<linearGradient id="paint1_linear_243_633" x1="52.5034" y1="7.80936" x2="9.13751" y2="73.2859" gradientUnits="userSpaceOnUse">
<stop stop-color="#9368B7"/>
<stop offset="0.46" stop-color="#06D7D4"/>
<stop offset="0.53" stop-color="#09CED6"/>
<stop offset="0.99" stop-color="#1A94E1"/>
</linearGradient>
</defs>
</svg>
