<svg width="42" height="42" viewBox="0 0 42 42" fill="none" xmlns="http://www.w3.org/2000/svg">
<path d="M34.709 0.308594H11.5105C9.59869 0.308594 8.04883 1.85846 8.04883 3.77031V34.2695C8.04883 36.1814 9.59869 37.7312 11.5105 37.7312H34.709C36.6208 37.7312 38.1707 36.1814 38.1707 34.2695V3.77031C38.1707 1.85846 36.6208 0.308594 34.709 0.308594Z" fill="url(#paint0_linear_364_1697)"/>
<path opacity="0.5" d="M29.6361 5.60107H7.2777C5.37309 5.60107 3.8291 7.14506 3.8291 9.04967V38.243C3.8291 40.1476 5.37309 41.6915 7.2777 41.6915H29.6361C31.5407 41.6915 33.0847 40.1476 33.0847 38.243V9.04967C33.0847 7.14506 31.5407 5.60107 29.6361 5.60107Z" fill="url(#paint1_linear_364_1697)"/>
<path d="M26.7191 20.0451L24.1597 21.0951C24.0834 21.127 24.0142 21.1739 23.9563 21.2329L17.4266 27.7593C17.3102 27.8767 17.2449 28.0353 17.2449 28.2006C17.2449 28.366 17.3102 28.5246 17.4266 28.642L18.9721 30.1874C19.0889 30.3037 19.247 30.3689 19.4118 30.3689C19.5766 30.3689 19.7346 30.3037 19.8515 30.1874L26.3779 23.661C26.4392 23.6005 26.4873 23.5279 26.519 23.4477L27.5361 20.849C27.5806 20.7353 27.5907 20.6111 27.5652 20.4918C27.5397 20.3724 27.4798 20.2632 27.3928 20.1776C27.3058 20.092 27.1956 20.0338 27.0758 20.0103C26.9561 19.9867 26.832 19.9988 26.7191 20.0451Z" fill="white"/>
<path d="M10.6477 13.0464H27.4083" stroke="white" stroke-width="3.3" stroke-miterlimit="10" stroke-linecap="round"/>
<path d="M10.6477 16.7246H16.5933" stroke="white" stroke-width="3.3" stroke-miterlimit="10" stroke-linecap="round"/>
<defs>
<linearGradient id="paint0_linear_364_1697" x1="29.7838" y1="6.02125" x2="16.9181" y2="31.0769" gradientUnits="userSpaceOnUse">
<stop offset="0.03" stop-color="#FFCC99"/>
<stop offset="0.47" stop-color="#06D7D4"/>
<stop offset="0.54" stop-color="#09CED6"/>
<stop offset="0.99" stop-color="#1A94E1"/>
</linearGradient>
<linearGradient id="paint1_linear_364_1697" x1="3.8291" y1="23.6479" x2="33.0847" y2="23.6479" gradientUnits="userSpaceOnUse">
<stop stop-color="#06D7D4"/>
<stop offset="0.13" stop-color="#09CED6"/>
<stop offset="0.99" stop-color="#1A94E1"/>
</linearGradient>
</defs>
</svg>
