<?xml version="1.0" encoding="utf-8"?>
<!-- Generator: Adobe Illustrator 25.3.1, SVG Export Plug-In . SVG Version: 6.00 Build 0)  -->
<svg version="1.1" id="Layer_1" xmlns="http://www.w3.org/2000/svg" xmlns:xlink="http://www.w3.org/1999/xlink" x="0px" y="0px"
	 viewBox="0 0 764.5 310" style="enable-background:new 0 0 764.5 310;" xml:space="preserve">
<style type="text/css">
	.st0{fill-rule:evenodd;clip-rule:evenodd;fill:url(#SVGID_1_);}
	.st1{fill-rule:evenodd;clip-rule:evenodd;fill:url(#SVGID_2_);}
	.st2{fill-rule:evenodd;clip-rule:evenodd;fill:url(#SVGID_3_);}
	.st3{fill-rule:evenodd;clip-rule:evenodd;fill:url(#SVGID_4_);}
	.st4{fill:#FFFFFF;}
</style>
<g>
	<linearGradient id="SVGID_1_" gradientUnits="userSpaceOnUse" x1="237.8529" y1="45.2895" x2="118.881" y2="210.0198">
		<stop  offset="0" style="stop-color:#02E4D1"/>
		<stop  offset="1" style="stop-color:#1A94E1"/>
	</linearGradient>
	<path class="st0" d="M0,299.8c64.6-48.3,98.5-49,98.5-49c-38.3,18.6-56.6,63.1-53.1,59c3.9-4.5,33.8-36.7,78.4-53.9
		c44.7-17.2,39.2-41.9,39.2-41.9C158.9,236.4,43.3,221.6,0,299.8z"/>
	<linearGradient id="SVGID_2_" gradientUnits="userSpaceOnUse" x1="273.64" y1="71.1357" x2="154.6681" y2="235.866">
		<stop  offset="0" style="stop-color:#02E4D1"/>
		<stop  offset="1" style="stop-color:#1A94E1"/>
	</linearGradient>
	<path class="st1" d="M260.3,102.6c-27.9-22.2-50.7-0.3-50.7-0.3c12.1,16.7,20.9,44.4,20.9,44.4c20.6-36.3,57.6-38.2,57.6-38.2
		C278.4,102,260.3,102.6,260.3,102.6z"/>
	<linearGradient id="SVGID_3_" gradientUnits="userSpaceOnUse" x1="208.3839" y1="24.0063" x2="89.412" y2="188.7366">
		<stop  offset="0" style="stop-color:#02E4D1"/>
		<stop  offset="1" style="stop-color:#1A94E1"/>
	</linearGradient>
	<path class="st2" d="M115.6,55.5l0.9-7.2c0,0-2.5-2.4-4.6-8c-0.7-2.1-1.4-4.1-2-6.2c-0.6-2.1-1.1-4.5-1.6-7.2
		c-0.7-4.2-0.9-8.6-0.4-13.2c-48.5,52-30.9,93.6,12.6,140.5c13.7,14.5,55.1,49.2,53.2,69.2c15-39.7-8.5-66.5-30.6-96.9
		c-13-18-27.8-40.4-27.9-63.2C115.2,59.3,115.4,58,115.6,55.5"/>
	<linearGradient id="SVGID_4_" gradientUnits="userSpaceOnUse" x1="226.2142" y1="36.8838" x2="107.2423" y2="201.6141">
		<stop  offset="0" style="stop-color:#02E4D1"/>
		<stop  offset="1" style="stop-color:#1A94E1"/>
	</linearGradient>
	<path class="st3" d="M153.5,0c0,0-34.2,35-29,67.5c5.2,32.5,35.4,64.7,53.2,94c17.7,29.3,7.7,57,7.7,57
		c79.7-48.5,13.8-109.9-11.9-155.3C147.7,17.9,153.5,0,153.5,0z"/>
</g>
<g>
	<path class="st4" d="M321.5,151.6c4.4,0,8.5,0.8,12.3,2.5c3.8,1.7,7.2,3.9,10,6.7c2.9,2.8,5.1,6.2,6.8,10c1.7,3.9,2.5,8,2.5,12.3
		c0,4.4-0.8,8.4-2.5,12.2c-1.7,3.8-3.9,7.1-6.8,9.9c-2.9,2.8-6.2,5.1-10.1,6.7c-3.9,1.6-8,2.4-12.4,2.4h-17v14.6
		c0,1-0.2,1.9-0.6,2.8c-0.4,0.9-0.9,1.6-1.6,2.2c-0.7,0.6-1.4,1.1-2.3,1.5c-0.9,0.4-1.8,0.6-2.8,0.6c-1,0-1.9-0.2-2.8-0.6
		c-0.9-0.4-1.6-0.9-2.2-1.5c-0.6-0.6-1.1-1.4-1.5-2.2c-0.4-0.9-0.6-1.8-0.6-2.8v-70.3c0-1,0.2-2,0.6-2.8c0.4-0.9,0.9-1.6,1.5-2.3
		c0.6-0.6,1.4-1.1,2.2-1.5c0.9-0.4,1.8-0.6,2.8-0.6H321.5z M304.5,165.9v34.2h17.2c2.4,0,4.6-0.5,6.7-1.4c2.1-0.9,3.9-2.2,5.4-3.7
		c1.5-1.6,2.8-3.4,3.6-5.4c0.9-2,1.3-4.2,1.3-6.4c0-2.2-0.5-4.4-1.4-6.5c-0.9-2.1-2.1-3.9-3.7-5.5c-1.5-1.6-3.3-2.9-5.4-3.8
		c-2.1-0.9-4.3-1.4-6.7-1.4H304.5z"/>
	<path class="st4" d="M379.6,231.9c-0.4,0.9-0.9,1.6-1.5,2.2c-0.6,0.6-1.3,1.1-2.2,1.5c-0.8,0.4-1.7,0.6-2.7,0.6c-1,0-2-0.2-2.9-0.6
		c-0.9-0.4-1.7-0.9-2.3-1.5c-0.7-0.6-1.2-1.4-1.6-2.2c-0.4-0.9-0.6-1.8-0.6-2.8v-21.3c0-4.5,0.9-8.8,2.6-12.8
		c1.7-4,4.1-7.5,7.1-10.5c3-3,6.5-5.4,10.5-7.1c4-1.7,8.3-2.6,12.7-2.6h0.1c2.4,0,4.2,0.7,5.5,2c1.3,1.3,1.9,3,1.9,5.1
		c0,1-0.2,2-0.6,2.8c-0.4,0.9-0.9,1.6-1.6,2.3c-0.7,0.6-1.5,1.1-2.4,1.5c-0.9,0.4-1.9,0.6-2.9,0.6h-0.1c-2.5,0-4.9,0.5-7.2,1.5
		c-2.3,1-4.2,2.3-5.9,4c-1.7,1.7-3,3.6-4,5.9c-1,2.2-1.5,4.6-1.5,7.2v21.5C380.1,230.1,379.9,231,379.6,231.9z"/>
	<path class="st4" d="M421.7,160.1c0-1.1,0.2-2.1,0.6-3.1c0.4-1,1-1.8,1.7-2.5c0.7-0.7,1.5-1.3,2.5-1.7c1-0.4,2-0.6,3-0.6
		s2.1,0.2,3,0.6c1,0.4,1.8,1,2.5,1.7c0.7,0.7,1.3,1.5,1.7,2.5c0.4,1,0.6,2,0.6,3.1c0,1.1-0.2,2.1-0.6,3c-0.4,0.9-1,1.8-1.7,2.5
		c-0.7,0.7-1.6,1.3-2.5,1.7c-1,0.4-2,0.6-3,0.6s-2.1-0.2-3-0.6c-1-0.4-1.8-1-2.5-1.7c-0.7-0.7-1.3-1.5-1.7-2.5
		C421.9,162.2,421.7,161.2,421.7,160.1z M436.7,229c0,1-0.2,1.9-0.6,2.8c-0.4,0.9-0.9,1.6-1.5,2.2c-0.6,0.6-1.4,1.1-2.3,1.5
		c-0.9,0.4-1.8,0.6-2.8,0.6c-1,0-1.9-0.2-2.8-0.6c-0.9-0.4-1.7-0.9-2.3-1.5c-0.7-0.6-1.2-1.4-1.6-2.2c-0.4-0.9-0.6-1.8-0.6-2.8
		v-47.2c0-1,0.2-1.9,0.6-2.7c0.4-0.9,0.9-1.6,1.6-2.3c0.7-0.7,1.4-1.2,2.3-1.6c0.9-0.4,1.8-0.6,2.8-0.6c1,0,1.9,0.2,2.7,0.6
		c0.9,0.4,1.6,0.9,2.2,1.6c0.6,0.7,1.1,1.4,1.5,2.3c0.4,0.9,0.5,1.8,0.5,2.7V229z"/>
	<path class="st4" d="M480.5,213.2l15.5-34.1c0.4-0.9,0.9-1.7,1.7-2.4c0.7-0.7,1.5-1.2,2.3-1.5c0.8-0.3,1.7-0.5,2.7-0.5
		c0.9,0,1.9,0.2,2.8,0.6c0.9,0.4,1.7,0.9,2.3,1.7c0.6,0.7,1.1,1.5,1.5,2.3c0.3,0.9,0.5,1.8,0.5,2.7c0,1-0.2,1.9-0.7,2.8l-22,46.8
		c-0.7,1.5-1.7,2.5-2.9,3.2c-1.2,0.7-2.3,1.1-3.4,1.2c-1.7,0-3.1-0.4-4.3-1.2c-1.2-0.8-2.1-1.9-2.7-3.1l-22.1-46.9
		c-0.4-0.9-0.7-1.9-0.7-2.8c0-1,0.1-1.9,0.5-2.7s0.8-1.6,1.5-2.3c0.7-0.7,1.4-1.3,2.3-1.7c0.9-0.4,1.8-0.6,2.8-0.6
		c0.9,0,1.8,0.1,2.7,0.5c0.9,0.3,1.6,0.8,2.3,1.5c0.7,0.7,1.3,1.5,1.7,2.4L480.5,213.2z"/>
	<path class="st4" d="M523.7,205.3v-46.9c0-1.1,0.2-2,0.6-2.9c0.4-0.9,0.9-1.7,1.5-2.4c0.6-0.7,1.4-1.2,2.3-1.6
		c0.9-0.4,1.8-0.6,2.8-0.6c1.1,0,2,0.2,2.9,0.6c0.9,0.4,1.6,0.9,2.2,1.6c0.6,0.7,1.1,1.5,1.5,2.4c0.4,0.9,0.5,1.9,0.5,2.9v20.6
		c2.5-1.6,5.2-2.9,8.1-3.8c2.9-0.9,5.9-1.4,9.1-1.4c4.4,0,8.4,0.8,12.3,2.5c3.8,1.7,7.1,3.9,10,6.7c2.8,2.8,5.1,6.2,6.7,10
		s2.5,7.9,2.5,12.3c0,4.3-0.8,8.4-2.5,12.2c-1.7,3.8-3.9,7.2-6.7,10c-2.8,2.9-6.2,5.1-10,6.8c-3.8,1.7-7.9,2.5-12.3,2.5
		c-4.3,0-8.4-0.8-12.2-2.5c-3.8-1.7-7.2-3.9-10-6.8c-2.9-2.9-5.1-6.2-6.8-10C524.5,213.8,523.7,209.7,523.7,205.3L523.7,205.3z
		 M538,205.4c0,2.3,0.5,4.5,1.4,6.6c0.9,2.1,2.1,3.9,3.7,5.5c1.6,1.6,3.4,2.8,5.4,3.7c2.1,0.9,4.3,1.4,6.7,1.4
		c2.4,0,4.6-0.5,6.7-1.4c2.1-0.9,3.9-2.1,5.4-3.7c1.6-1.6,2.8-3.4,3.7-5.5c0.9-2.1,1.3-4.3,1.3-6.6c0-2.4-0.4-4.6-1.3-6.7
		c-0.9-2.1-2.1-3.9-3.7-5.4c-1.6-1.5-3.4-2.8-5.4-3.7c-2.1-0.9-4.3-1.4-6.7-1.4c-2.4,0-4.6,0.5-6.7,1.4c-2.1,0.9-3.9,2.1-5.4,3.7
		c-1.6,1.5-2.8,3.4-3.7,5.4C538.5,200.8,538,203,538,205.4z"/>
	<path class="st4" d="M603.1,160.1c0-1.1,0.2-2.1,0.6-3.1c0.4-1,1-1.8,1.7-2.5c0.7-0.7,1.5-1.3,2.5-1.7c1-0.4,2-0.6,3-0.6
		s2.1,0.2,3,0.6c1,0.4,1.8,1,2.5,1.7c0.7,0.7,1.3,1.5,1.7,2.5c0.4,1,0.6,2,0.6,3.1c0,1.1-0.2,2.1-0.6,3c-0.4,0.9-1,1.8-1.7,2.5
		c-0.7,0.7-1.6,1.3-2.5,1.7c-1,0.4-2,0.6-3,0.6s-2.1-0.2-3-0.6c-1-0.4-1.8-1-2.5-1.7c-0.7-0.7-1.3-1.5-1.7-2.5
		C603.4,162.2,603.1,161.2,603.1,160.1z M618.2,229c0,1-0.2,1.9-0.6,2.8c-0.4,0.9-0.9,1.6-1.5,2.2c-0.6,0.6-1.4,1.1-2.3,1.5
		c-0.9,0.4-1.8,0.6-2.8,0.6c-1,0-1.9-0.2-2.8-0.6c-0.9-0.4-1.7-0.9-2.3-1.5c-0.7-0.6-1.2-1.4-1.6-2.2c-0.4-0.9-0.6-1.8-0.6-2.8
		v-47.2c0-1,0.2-1.9,0.6-2.7c0.4-0.9,0.9-1.6,1.6-2.3c0.7-0.7,1.4-1.2,2.3-1.6c0.9-0.4,1.8-0.6,2.8-0.6c1,0,1.9,0.2,2.7,0.6
		c0.9,0.4,1.6,0.9,2.2,1.6c0.6,0.7,1.1,1.4,1.5,2.3c0.4,0.9,0.5,1.8,0.5,2.7V229z"/>
	<path class="st4" d="M652.1,231.9c-0.4,0.9-0.9,1.6-1.5,2.2c-0.6,0.6-1.3,1.1-2.2,1.5c-0.8,0.4-1.7,0.6-2.7,0.6c-1,0-2-0.2-2.9-0.6
		c-0.9-0.4-1.7-0.9-2.3-1.5c-0.7-0.6-1.2-1.4-1.6-2.2c-0.4-0.9-0.6-1.8-0.6-2.8v-21.3c0-4.5,0.9-8.8,2.6-12.8
		c1.7-4,4.1-7.5,7.1-10.5c3-3,6.5-5.4,10.5-7.1c4-1.7,8.3-2.6,12.7-2.6h0.1c2.4,0,4.2,0.7,5.5,2c1.3,1.3,1.9,3,1.9,5.1
		c0,1-0.2,2-0.6,2.8c-0.4,0.9-0.9,1.6-1.6,2.3c-0.7,0.6-1.5,1.1-2.4,1.5c-0.9,0.4-1.9,0.6-2.9,0.6h-0.1c-2.5,0-4.9,0.5-7.2,1.5
		c-2.3,1-4.2,2.3-5.9,4c-1.7,1.7-3,3.6-4,5.9c-1,2.2-1.5,4.6-1.5,7.2v21.5C652.6,230.1,652.4,231,652.1,231.9z"/>
	<path class="st4" d="M750.7,205.3v0.3c0,2.9-0.4,5.6-1.2,8.3c-0.7,2.7-1.8,5.2-3.2,7.5s-3,4.4-5,6.3c-1.9,1.9-4,3.5-6.4,4.9
		c-2.3,1.4-4.8,2.4-7.5,3.2c-2.7,0.7-5.4,1.1-8.3,1.1c-4.4,0-8.4-0.8-12.2-2.5c-3.8-1.7-7.1-3.9-10-6.8c-2.8-2.9-5.1-6.2-6.7-10
		c-1.7-3.8-2.5-7.9-2.5-12.2c0-4.4,0.8-8.5,2.5-12.3c1.7-3.8,3.9-7.2,6.7-10c2.8-2.8,6.2-5.1,10-6.7c3.8-1.7,7.9-2.5,12.2-2.5
		c3.2,0,6.2,0.5,9.1,1.4c2.9,0.9,5.6,2.2,8.1,3.8v-20.6c0-1.1,0.2-2,0.5-2.9c0.4-0.9,0.8-1.7,1.5-2.4c0.6-0.7,1.4-1.2,2.2-1.6
		c0.9-0.4,1.8-0.6,2.9-0.6c1,0,2,0.2,2.8,0.6c0.9,0.4,1.6,0.9,2.3,1.6c0.6,0.7,1.1,1.5,1.5,2.4c0.4,0.9,0.6,1.9,0.6,2.9V205.3z
		 M736.4,205.4c0-2.4-0.5-4.6-1.4-6.7c-0.9-2.1-2.1-3.9-3.7-5.4c-1.6-1.5-3.4-2.8-5.4-3.7c-2.1-0.9-4.3-1.4-6.7-1.4
		c-2.4,0-4.6,0.5-6.7,1.4c-2.1,0.9-3.9,2.1-5.4,3.7c-1.6,1.5-2.8,3.4-3.7,5.4c-0.9,2.1-1.3,4.3-1.3,6.7c0,2.3,0.4,4.5,1.3,6.6
		c0.9,2.1,2.1,3.9,3.6,5.5c1.5,1.6,3.4,2.8,5.4,3.7c2.1,0.9,4.3,1.4,6.7,1.4c2.4,0,4.6-0.5,6.7-1.4c2.1-0.9,3.9-2.1,5.4-3.7
		c1.6-1.6,2.8-3.4,3.7-5.5C735.9,210,736.4,207.8,736.4,205.4z"/>
</g>
</svg>
