<svg width="33" height="33" viewBox="0 0 33 33" fill="none" xmlns="http://www.w3.org/2000/svg">
<path d="M27.425 0.112499C25.9763 0.112499 24.5869 0.688011 23.5625 1.71243C22.5381 2.73685 21.9625 4.12625 21.9625 5.575C21.965 5.95897 22.0079 6.34161 22.0906 6.71658L9.68793 12.9179C9.17639 12.329 8.54466 11.8564 7.83522 11.5321C7.12579 11.2077 6.35511 11.0391 5.57505 11.0375C4.1263 11.0375 2.7369 11.613 1.71248 12.6374C0.68806 13.6618 0.112549 15.0513 0.112549 16.5C0.112549 17.9487 0.68806 19.3382 1.71248 20.3626C2.7369 21.387 4.1263 21.9625 5.57505 21.9625C6.35536 21.9616 7.12642 21.7936 7.83633 21.4697C8.54624 21.1458 9.17852 20.6735 9.69059 20.0848L22.0852 26.2834C22.0044 26.6586 21.9632 27.0412 21.9625 27.425C21.9625 28.8737 22.5381 30.2632 23.5625 31.2876C24.5869 32.312 25.9763 32.8875 27.425 32.8875C28.8738 32.8875 30.2632 32.312 31.2876 31.2876C32.312 30.2632 32.8876 28.8737 32.8876 27.425C32.8876 25.9763 32.312 24.5868 31.2876 23.5624C30.2632 22.538 28.8738 21.9625 27.425 21.9625C26.6447 21.9634 25.8737 22.1314 25.1638 22.4553C24.4539 22.7792 23.8216 23.2515 23.3095 23.8402L10.9149 17.6416C10.9957 17.2664 11.0369 16.8838 11.0375 16.5C11.0349 16.1169 10.992 15.7352 10.9095 15.3611L23.3122 9.15977C23.824 9.7482 24.4558 10.2202 25.1652 10.5441C25.8746 10.868 26.6452 11.0362 27.425 11.0375C28.8738 11.0375 30.2632 10.462 31.2876 9.43757C32.312 8.41315 32.8876 7.02374 32.8876 5.575C32.8876 4.12625 32.312 2.73685 31.2876 1.71243C30.2632 0.688011 28.8738 0.112499 27.425 0.112499Z" fill="white"/>
</svg>
