<svg width="77" height="77" viewBox="0 0 77 77" fill="none" xmlns="http://www.w3.org/2000/svg">
<path d="M75.0509 42.2658C75.0509 23.6407 59.9524 8.54218 41.3274 8.54218C22.7023 8.54218 7.60376 23.6407 7.60376 42.2658C7.60376 60.8908 22.7023 75.9894 41.3274 75.9894C59.9524 75.9894 75.0509 60.8908 75.0509 42.2658Z" fill="url(#paint0_linear_243_644)"/>
<path opacity="0.5" d="M23.8038 44.7142C35.8739 44.7142 45.6586 34.9295 45.6586 22.8594C45.6586 10.7894 35.8739 1.00464 23.8038 1.00464C11.7337 1.00464 1.94904 10.7894 1.94904 22.8594C1.94904 34.9295 11.7337 44.7142 23.8038 44.7142Z" fill="url(#paint1_linear_243_644)"/>
<path opacity="0.5" d="M40.9484 66.9479C54.7892 66.9479 66.0095 55.8973 66.0095 42.2658C66.0095 28.6342 54.7892 17.5837 40.9484 17.5837C27.1075 17.5837 15.8873 28.6342 15.8873 42.2658C15.8873 55.8973 27.1075 66.9479 40.9484 66.9479Z" fill="url(#paint2_linear_243_644)"/>
<path d="M31.2211 38.0188C32.8557 38.0188 34.1808 35.8345 34.1808 33.1401C34.1808 30.4457 32.8557 28.2614 31.2211 28.2614C29.5865 28.2614 28.2614 30.4457 28.2614 33.1401C28.2614 35.8345 29.5865 38.0188 31.2211 38.0188Z" fill="white"/>
<path d="M45.8511 35.1433C45.8511 35.1433 50.5553 31.9189 55.2595 35.1433L55.434 33.5732C55.434 33.5732 54.3872 31.3956 50.2906 31.3956C46.194 31.3956 45.7668 33.6875 45.7668 33.8379C45.7668 33.9883 45.8511 35.1433 45.8511 35.1433Z" fill="white"/>
<path d="M56.3003 51.5178C56.3003 51.5178 51.3374 55.0009 39.4926 53.2563C27.6478 51.5118 24.7784 46.0376 24.7784 46.0376C24.7784 46.0376 27.0703 56.5469 39.5828 58.7426C52.0953 60.9383 56.3003 51.5178 56.3003 51.5178Z" fill="white"/>
<defs>
<linearGradient id="paint0_linear_243_644" x1="56.9199" y1="26.4026" x2="22.715" y2="61.203" gradientUnits="userSpaceOnUse">
<stop stop-color="#FFCC99"/>
<stop offset="0.49" stop-color="#06D7D4"/>
<stop offset="0.55" stop-color="#09CED6"/>
<stop offset="0.99" stop-color="#1A94E1"/>
</linearGradient>
<linearGradient id="paint1_linear_243_644" x1="1.94904" y1="22.8594" x2="45.6586" y2="22.8594" gradientUnits="userSpaceOnUse">
<stop stop-color="#06D7D4"/>
<stop offset="0.13" stop-color="#09CED6"/>
<stop offset="0.99" stop-color="#1A94E1"/>
</linearGradient>
<linearGradient id="paint2_linear_243_644" x1="15.8933" y1="42.2658" x2="66.0095" y2="42.2658" gradientUnits="userSpaceOnUse">
<stop stop-color="#06D7D4"/>
<stop offset="0.13" stop-color="#09CED6"/>
<stop offset="0.99" stop-color="#1A94E1"/>
</linearGradient>
</defs>
</svg>
