<svg width="44" height="44" viewBox="0 0 44 44" fill="none" xmlns="http://www.w3.org/2000/svg">
<path d="M5.80413 35.5892L8.50663 38.2917L11.9566 34.8609L9.23496 32.1392L5.80413 35.5892ZM22 10.5C15.6558 10.5 10.5 15.6559 10.5 22C10.5 28.3442 15.6558 33.5 22 33.5C28.3441 33.5 33.5 28.3442 33.5 22C33.5 15.6367 28.3441 10.5 22 10.5ZM37.3333 23.9167H43.0833V20.0834H37.3333V23.9167ZM32.0433 34.8609L35.4933 38.2917L38.1958 35.5892L34.765 32.1392L32.0433 34.8609ZM38.1958 8.58335L35.4933 5.90002L32.0433 9.33085L34.765 12.0525L38.1958 8.58335ZM23.9166 0.916687H20.0833V6.66669H23.9166V0.916687ZM11.9566 9.33085L8.50663 5.90002L5.80413 8.58335L9.23496 12.0525L11.9566 9.33085ZM0.916626 23.9167H6.66663V20.0834H0.916626V23.9167ZM23.9166 37.3334H20.0833V43.0834H23.9166" fill="white"/>
</svg>
