<svg width="87" height="87" viewBox="0 0 87 87" fill="none" xmlns="http://www.w3.org/2000/svg">
<path opacity="0.5" d="M1.1283 44.1389C1.17862 55.3436 5.66498 66.0722 13.6058 73.9773C21.5466 81.8824 32.2952 86.3204 43.5 86.3203C54.6978 86.3205 65.4403 81.8881 73.3799 73.9917C81.3196 66.0954 85.8107 55.3773 85.8717 44.1797L1.1283 44.1389Z" fill="url(#paint0_linear_243_681)"/>
<path d="M52.8185 47.8636C56.1126 47.9401 59.2461 49.3024 61.5488 51.6592C63.8515 54.016 65.1407 57.1802 65.1407 60.4752C65.1407 63.7702 63.8515 66.9344 61.5488 69.2912C59.2461 71.648 56.1126 73.0103 52.8185 73.0868" stroke="white" stroke-width="3.13" stroke-miterlimit="10"/>
<path d="M58.7046 39.1636C56.4207 37.5016 54.5663 35.3185 53.2955 32.7958C52.0247 30.2732 51.3742 27.4837 51.398 24.6591V24.5571H46.144V19.6498C53.7429 24.3192 59.7377 19.7177 60.499 15.8503C61.301 11.8402 66.12 8.62525 66.12 8.62525C52.7166 4.71704 47.8568 8.96509 46.144 11.9149V2.54884C46.144 2.06213 45.9506 1.59535 45.6065 1.25119C45.2623 0.90703 44.7956 0.713684 44.3088 0.713684H43.065C42.5783 0.713684 42.1115 0.90703 41.7674 1.25119C41.4232 1.59535 41.2299 2.06213 41.2299 2.54884V6.15798C39.2384 4.11892 35.0379 2.28376 26.2224 4.85978C26.2224 4.85978 30.0898 7.43579 30.7355 10.6575C31.32 13.5802 35.6224 17.033 41.2299 14.2734V24.5571H35.9691V25.1485C35.945 27.9177 35.2587 30.641 33.9675 33.091C32.6763 35.5409 30.8177 37.6464 28.5469 39.2316C24.0766 42.4351 20.7398 46.9761 19.0177 52.1992C17.2957 57.4222 17.2775 63.0573 18.9658 68.2914C20.6542 73.5255 23.9617 78.0878 28.4113 81.3201C32.8608 84.5525 38.2221 86.2876 43.7217 86.2752C49.2213 86.2628 54.5748 84.5035 59.0097 81.2511C63.4446 77.9988 66.7315 73.4216 68.3963 68.1799C70.061 62.9383 70.0174 57.3033 68.2718 52.0881C66.5262 46.8728 63.1689 42.347 58.6842 39.1636H58.7046Z" fill="url(#paint1_linear_243_681)"/>
<path d="M43.8806 41.9095C48.8036 41.9095 53.525 43.8652 57.0061 47.3463C60.4872 50.8274 62.4429 55.5488 62.4429 60.4718C62.4429 65.3948 60.4872 70.1162 57.0061 73.5973C53.525 77.0784 48.8036 79.0341 43.8806 79.0341" stroke="white" stroke-width="3.13" stroke-miterlimit="10"/>
<path d="M43.5 53.3011C44.4607 53.2715 45.4175 53.4352 46.3138 53.7824C47.21 54.1296 48.0274 54.6533 48.7174 55.3224C49.4074 55.9915 49.956 56.7924 50.3307 57.6775C50.7053 58.5627 50.8983 59.514 50.8983 60.4752C50.8983 61.4363 50.7053 62.3877 50.3307 63.2728C49.956 64.1579 49.4074 64.9588 48.7174 65.6279C48.0274 66.297 47.21 66.8207 46.3138 67.1679C45.4175 67.5152 44.4607 67.6788 43.5 67.6493" stroke="white" stroke-width="3.13" stroke-miterlimit="10"/>
<defs>
<linearGradient id="paint0_linear_243_681" x1="43.5" y1="86.2863" x2="43.5" y2="44.1389" gradientUnits="userSpaceOnUse">
<stop stop-color="#06D7D4"/>
<stop offset="0.13" stop-color="#09CED6"/>
<stop offset="0.99" stop-color="#1A94E1"/>
</linearGradient>
<linearGradient id="paint1_linear_243_681" x1="56.1898" y1="25.5087" x2="20.2071" y2="74.82" gradientUnits="userSpaceOnUse">
<stop stop-color="#9368B7"/>
<stop offset="0.49" stop-color="#06D7D4"/>
<stop offset="0.56" stop-color="#09CED6"/>
<stop offset="0.99" stop-color="#1A94E1"/>
</linearGradient>
</defs>
</svg>
