<svg width="46" height="46" viewBox="0 0 46 46" fill="none" xmlns="http://www.w3.org/2000/svg">
<g clip-path="url(#clip0_364_1667)">
<path opacity="0.5" d="M0.59668 23.3379C0.623289 29.2622 2.99539 34.9348 7.19397 39.1145C11.3925 43.2942 17.0758 45.6408 23.0001 45.6407C28.9208 45.6408 34.6007 43.2972 38.7987 39.1221C42.9967 34.9471 45.3713 29.28 45.4036 23.3595L0.59668 23.3379Z" fill="url(#paint0_linear_364_1667)"/>
<path d="M27.927 25.3071C29.6687 25.3476 31.3255 26.0679 32.543 27.314C33.7605 28.5601 34.4422 30.2331 34.4422 31.9753C34.4422 33.7175 33.7605 35.3906 32.543 36.6367C31.3255 37.8828 29.6687 38.6031 27.927 38.6435" stroke="white" stroke-width="3.13" stroke-miterlimit="10"/>
<path d="M31.0391 20.7073C29.8315 19.8285 28.851 18.6742 28.1791 17.3404C27.5072 16.0066 27.1632 14.5317 27.1758 13.0382V12.9843H24.3979V10.3896C28.4157 12.8585 31.5854 10.4256 31.9879 8.38072C32.4119 6.26041 34.9599 4.56057 34.9599 4.56057C27.873 2.49416 25.3035 4.74025 24.3979 6.29994V1.34775C24.3979 1.09041 24.2956 0.843608 24.1137 0.661639C23.9317 0.479671 23.6849 0.377441 23.4275 0.377441H22.7699C22.5125 0.377441 22.2657 0.479671 22.0838 0.661639C21.9018 0.843608 21.7996 1.09041 21.7996 1.34775V3.25604C20.7466 2.17791 18.5257 1.2076 13.8646 2.56963C13.8646 2.56963 15.9094 3.93166 16.2508 5.6351C16.5599 7.18041 18.8347 9.00604 21.7996 7.54697V12.9843H19.018V13.297C19.0053 14.7612 18.6424 16.2011 17.9597 17.4965C17.277 18.7918 16.2943 19.9051 15.0936 20.7432C12.7301 22.4371 10.9657 24.838 10.0552 27.5996C9.14471 30.3613 9.1351 33.3408 10.0278 36.1082C10.9205 38.8756 12.6693 41.2879 15.0219 42.9969C17.3745 44.706 20.2093 45.6234 23.1171 45.6169C26.025 45.6103 28.8555 44.6801 31.2004 42.9605C33.5453 41.2408 35.2832 38.8207 36.1634 36.0492C37.0436 33.2778 37.0206 30.2984 36.0976 27.5409C35.1747 24.7834 33.3995 22.3904 31.0283 20.7073H31.0391Z" fill="url(#paint1_linear_364_1667)"/>
<path d="M23.2012 22.1592C25.8041 22.1592 28.3005 23.1932 30.1411 25.0338C31.9817 26.8744 33.0157 29.3707 33.0157 31.9737C33.0157 34.5767 31.9817 37.0731 30.1411 38.9136C28.3005 40.7542 25.8041 41.7882 23.2012 41.7882" stroke="white" stroke-width="3.13" stroke-miterlimit="10"/>
<path d="M23 28.182C23.508 28.1663 24.0139 28.2529 24.4877 28.4365C24.9616 28.6201 25.3938 28.897 25.7586 29.2507C26.1235 29.6045 26.4135 30.028 26.6116 30.496C26.8097 30.964 26.9118 31.467 26.9118 31.9752C26.9118 32.4834 26.8097 32.9864 26.6116 33.4544C26.4135 33.9224 26.1235 34.3458 25.7586 34.6996C25.3938 35.0534 24.9616 35.3303 24.4877 35.5139C24.0139 35.6975 23.508 35.784 23 35.7684" stroke="white" stroke-width="3.13" stroke-miterlimit="10"/>
</g>
<defs>
<linearGradient id="paint0_linear_364_1667" x1="23.0001" y1="45.6227" x2="23.0001" y2="23.3379" gradientUnits="userSpaceOnUse">
<stop stop-color="#06D7D4"/>
<stop offset="0.13" stop-color="#09CED6"/>
<stop offset="0.99" stop-color="#1A94E1"/>
</linearGradient>
<linearGradient id="paint1_linear_364_1667" x1="29.7094" y1="13.4874" x2="10.6841" y2="39.5601" gradientUnits="userSpaceOnUse">
<stop stop-color="#9368B7"/>
<stop offset="0.49" stop-color="#06D7D4"/>
<stop offset="0.56" stop-color="#09CED6"/>
<stop offset="0.99" stop-color="#1A94E1"/>
</linearGradient>
<clipPath id="clip0_364_1667">
<rect width="46" height="46" fill="white"/>
</clipPath>
</defs>
</svg>
